<svg xmlns="http://www.w3.org/2000/svg" viewBox="0 0 22 22"><path d="M9 9H10V2H8V3H6V4H5V5H6V6H7V7H8V8H9M11 10H12V9H13V8H14V7H15V6H16V5H17V4H16V3H14V2H11M5 15H4V14H5V13H6V14H5M9 14H10V13H9M8 15H9V14H8M7 16H8V15H7M9 16H10V15H9M4 17H5V16H6V15H7V14H8V13H9V12H2V14H3V16H4M6 17H7V16H6M8 17H9V16H8M5 18H6V17H5M7 18H8V17H7M9 18H10V17H9M6 19H7V18H6M8 19H9V18H8M9 20H10V19H9M22 22H20V20H12V22H8V21H5V20H4V19H3V18H2V17H1V14H0V8H1V5H2V4H3V3H4V2H5V1H8V0H14V1H17V2H18V3H19V4H20V5H21V8H22M20 10V8H19V6H18V5H17V6H16V7H15V8H14V9H13V10M10 11V10H9V9H8V8H7V7H6V6H5V5H4V6H3V8H2V11M20 13V11H12V13M20 16V14H12V16M20 19V17H12V19Z"/></svg>