<svg width="600" height="572" viewBox="0 0 600 572" fill="none" xmlns="http://www.w3.org/2000/svg">
<rect width="600" height="572" fill="white"/>
<rect width="600" height="572" rx="20" fill="#6437A3"/>
<rect x="8" y="8" width="584" height="556" rx="16" fill="black"/>
<rect x="25" y="25" width="550" height="522" fill="#B1AEA7"/>
<g transform="translate(35 35)"><path d="M4 2H18V3H19V4H20V18H19V19H18V20H4V19H3V18H2V4H3V3H4V2M4 16H5V15H7V14H15V15H17V16H18V5H17V4H5V5H4V16M16 18V17H14V16H8V17H6V18H16M9 5H13V6H14V7H15V11H14V12H13V13H9V12H8V11H7V7H8V6H9V5M12 8V7H10V8H9V10H10V11H12V10H13V8H12Z" fill="#322F28"/></g>
<g transform="translate(63 35)"><path d="M9 3H13V4H14V5H15V9H14V10H13V11H9V10H8V9H7V5H8V4H9V3M10 8V9H12V8H13V6H12V5H10V6H9V8H10M7 12H15V13H17V14H18V15H19V19H3V15H4V14H5V13H7V12M6 16H5V17H17V16H16V15H14V14H8V15H6V16Z" fill="#322F28"/></g>
<g transform="translate(91 35)"><path d="M20 20H2V19H1V15H2V13H3V11H4V9H5V7H6V5H7V3H8V2H14V3H15V5H16V7H17V9H18V11H19V13H20V15H21V19H20V20M9 6H8V8H7V10H6V12H5V14H4V16H3V18H19V16H18V14H17V12H16V10H15V8H14V6H13V4H9V6M10 7H12V13H10V7M10 14H12V16H10V14Z" fill="#322F28"/></g>
<g transform="translate(119 35)"><path d="M10 8H12V10H10V8M15 1V2H17V3H18V4H19V5H20V7H21V15H20V17H19V18H18V19H17V20H15V21H7V20H5V19H4V18H3V17H2V15H1V7H2V5H3V4H4V3H5V2H7V1H15M13 6H9V7H8V16H10V12H12V16H14V7H13V6Z" fill="#322F28"/></g>
<g transform="translate(147 35)"><path d="M15 1V2H17V3H18V4H19V5H20V7H21V15H20V17H19V18H18V19H17V20H15V21H7V20H5V19H4V18H3V17H2V15H1V7H2V5H3V4H4V3H5V2H7V1H15M14 3H8V4H6V5H5V6H4V8H3V14H4V16H5V17H6V18H8V19H14V18H16V17H17V16H18V14H19V8H18V6H17V5H16V4H14V3M13 6V7H14V16H12V12H10V16H8V7H9V6H13M12 8H10V10H12V8Z" fill="#322F28"/></g>
<g transform="translate(175 35)"><path d="M15 1V2H17V3H18V4H19V5H20V7H21V15H20V17H19V18H18V19H17V20H15V21H7V20H5V19H4V18H3V17H2V15H1V7H2V5H3V4H4V3H5V2H7V1H15M8 6V16H13V15H14V12H13V10H14V7H13V6H8M10 8H12V10H10V8M12 12V14H10V12H12Z" fill="#322F28"/></g>
<g transform="translate(203 35)"><path d="M15 1V2H17V3H18V4H19V5H20V7H21V15H20V17H19V18H18V19H17V20H15V21H7V20H5V19H4V18H3V17H2V15H1V7H2V5H3V4H4V3H5V2H7V1H15M14 3H8V4H6V5H5V6H4V8H3V14H4V16H5V17H6V18H8V19H14V18H16V17H17V16H18V14H19V8H18V6H17V5H16V4H14V3M8 6H13V7H14V10H13V12H14V15H13V16H8V6M10 8V10H12V8H10M12 12H10V14H12V12Z" fill="#322F28"/></g>
<g transform="translate(231 35)"><path d="M15 1V2H17V3H18V4H19V5H20V7H21V15H20V17H19V18H18V19H17V20H15V21H7V20H5V19H4V18H3V17H2V15H1V7H2V5H3V4H4V3H5V2H7V1H15M9 6L9 7L8 7V15H9V16H13L13 15L14 15V13H12V14H10V8H12V9H14V7H13V6H9Z" fill="#322F28"/></g>
<g transform="translate(259 35)"><path d="M15 1V2H17V3H18V4H19V5H20V7H21V15H20V17H19V18H18V19H17V20H15V21H7V20H5V19H4V18H3V17H2V15H1V7H2V5H3V4H4V3H5V2H7V1H15M14 3H8V4H6V5H5V6H4V8H3V14H4V16H5V17H6V18H8V19H14V18H16V17H17V16H18V14H19V8H18V6H17V5H16V4H14V3M9 6H13V7H14V9H12V8H10V14H12V13H14V15L13 15L13 16H9V15H8V7L9 7L9 6Z" fill="#322F28"/></g>
<g transform="translate(287 35)"><path d="M15 1V2H17V3H18V4H19V5H20V7H21V15H20V17H19V18H18V19H17V20H15V21H7V20H5V19H4V18H3V17H2V15H1V7H2V5H3V4H4V3H5V2H7V1H15M8 6V16H13L13 15L14 15L14 14H15V8H14L14 7L13 7L13 6H8M10 8H12L12 9H13V13H12L12 14H10V8Z" fill="#322F28"/></g>
<g transform="translate(315 35)"><path d="M15 1V2H17V3H18V4H19V5H20V7H21V15H20V17H19V18H18V19H17V20H15V21H7V20H5V19H4V18H3V17H2V15H1V7H2V5H3V4H4V3H5V2H7V1H15M14 3H8V4H6V5H5V6H4V8H3V14H4V16H5V17H6V18H8V19H14V18H16V17H17V16H18V14H19V8H18V6H17V5H16V4H14V3M8 6H13L13 7L14 7L14 8H15V14H14L14 15L13 15L13 16H8V6M10 8V14H12L12 13H13V9H12L12 8H10Z" fill="#322F28"/></g>
<g transform="translate(343 35)"><path d="M15 1V2H17V3H18V4H19V5H20V7H21V15H20V17H19V18H18V19H17V20H15V21H7V20H5V19H4V18H3V17H2V15H1V7H2V5H3V4H4V3H5V2H7V1H15M8 6V16H14V14H10V12H14V10H10V8H14V6H8Z" fill="#322F28"/></g>
<g transform="translate(371 35)"><path d="M15 1V2H17V3H18V4H19V5H20V7H21V15H20V17H19V18H18V19H17V20H15V21H7V20H5V19H4V18H3V17H2V15H1V7H2V5H3V4H4V3H5V2H7V1H15M14 3H8V4H6V5H5V6H4V8H3V14H4V16H5V17H6V18H8V19H14V18H16V17H17V16H18V14H19V8H18V6H17V5H16V4H14V3M8 6H14V8H10V10H14V12H10V14H14V16H8V6Z" fill="#322F28"/></g>
<g transform="translate(399 35)"><path d="M15 1V2H17V3H18V4H19V5H20V7H21V15H20V17H19V18H18V19H17V20H15V21H7V20H5V19H4V18H3V17H2V15H1V7H2V5H3V4H4V3H5V2H7V1H15M8 6V16H10V12H13V10H10V8H14V6H8Z" fill="#322F28"/></g>
<g transform="translate(427 35)"><path d="M15 1V2H17V3H18V4H19V5H20V7H21V15H20V17H19V18H18V19H17V20H15V21H7V20H5V19H4V18H3V17H2V15H1V7H2V5H3V4H4V3H5V2H7V1H15M14 3H8V4H6V5H5V6H4V8H3V14H4V16H5V17H6V18H8V19H14V18H16V17H17V16H18V14H19V8H18V6H17V5H16V4H14V3M8 6H14V8H10V10H13V12H10V16H8V6Z" fill="#322F28"/></g>
<g transform="translate(455 35)"><path d="M15 1V2H17V3H18V4H19V5H20V7H21V15H20V17H19V18H18V19H17V20H15V21H7V20H5V19H4V18H3V17H2V15H1V7H2V5H3V4H4V3H5V2H7V1H15M9 6V7H8V15H9V16H13L13 15L14 15V10H11V12H12V14H10V8H14V6H9Z" fill="#322F28"/></g>
<g transform="translate(483 35)"><path d="M15 1V2H17V3H18V4H19V5H20V7H21V15H20V17H19V18H18V19H17V20H15V21H7V20H5V19H4V18H3V17H2V15H1V7H2V5H3V4H4V3H5V2H7V1H15M14 3H8V4H6V5H5V6H4V8H3V14H4V16H5V17H6V18H8V19H14V18H16V17H17V16H18V14H19V8H18V6H17V5H16V4H14V3M9 6H14V8H10V14H12V12H11V10H14V15L13 15L13 16H9V15H8V7H9V6Z" fill="#322F28"/></g>
<g transform="translate(511 35)"><path d="M15 1V2H17V3H18V4H19V5H20V7H21V15H20V17H19V18H18V19H17V20H15V21H7V20H5V19H4V18H3V17H2V15H1V7H2V5H3V4H4V3H5V2H7V1H15M8 6V16H10V12H12V16H14V6H12V10H10V6H8Z" fill="#322F28"/></g>
<g transform="translate(539 35)"><path d="M15 1V2H17V3H18V4H19V5H20V7H21V15H20V17H19V18H18V19H17V20H15V21H7V20H5V19H4V18H3V17H2V15H1V7H2V5H3V4H4V3H5V2H7V1H15M14 3H8V4H6V5H5V6H4V8H3V14H4V16H5V17H6V18H8V19H14V18H16V17H17V16H18V14H19V8H18V6H17V5H16V4H14V3M8 6H10V10H12V6H14V16H12V12H10V16H8V6Z" fill="#322F28"/></g>
<g transform="translate(35 63)"><path d="M15 1V2H17V3H18V4H19V5H20V7H21V15H20V17H19V18H18V19H17V20H15V21H7V20H5V19H4V18H3V17H2V15H1V7H2V5H3V4H4V3H5V2H7V1H15M13 6H9V8H10V14H9V16H13V14H12V8H13V6Z" fill="#322F28"/></g>
<g transform="translate(63 63)"><path d="M15 1V2H17V3H18V4H19V5H20V7H21V15H20V17H19V18H18V19H17V20H15V21H7V20H5V19H4V18H3V17H2V15H1V7H2V5H3V4H4V3H5V2H7V1H15M14 3H8V4H6V5H5V6H4V8H3V14H4V16H5V17H6V18H8V19H14V18H16V17H17V16H18V14H19V8H18V6H17V5H16V4H14V3M13 6V8H12V14H13V16H9V14H10V8H9V6H13Z" fill="#322F28"/></g>
<g transform="translate(91 63)"><path d="M15 1V2H17V3H18V4H19V5H20V7H21V15H20V17H19V18H18V19H17V20H15V21H7V20H5V19H4V18H3V17H2V15H1V7H2V5H3V4H4V3H5V2H7V1H15M12 6V14H10V13H8V15H9V16H13L13 15L14 15V6H12Z" fill="#322F28"/></g>
<g transform="translate(119 63)"><path d="M15 1V2H17V3H18V4H19V5H20V7H21V15H20V17H19V18H18V19H17V20H15V21H7V20H5V19H4V18H3V17H2V15H1V7H2V5H3V4H4V3H5V2H7V1H15M14 3H8V4H6V5H5V6H4V8H3V14H4V16H5V17H6V18H8V19H14V18H16V17H17V16H18V14H19V8H18V6H17V5H16V4H14V3M12 6H14V15L13 15L13 16H9V15H8V13H10V14H12V6Z" fill="#322F28"/></g>
<g transform="translate(147 63)"><path d="M15 1V2H17V3H18V4H19V5H20V7H21V15H20V17H19V18H18V19H17V20H15V21H7V20H5V19H4V18H3V17H2V15H1V7H2V5H3V4H4V3H5V2H7V1H15M8 6V16H10V13H11V14L12 14V16H14V13H13V12H12V11H11V10H12V9H13V8H14V6H12V7H11V8H10V6H8Z" fill="#322F28"/></g>
<g transform="translate(175 63)"><path d="M15 1V2H17V3H18V4H19V5H20V7H21V15H20V17H19V18H18V19H17V20H15V21H7V20H5V19H4V18H3V17H2V15H1V7H2V5H3V4H4V3H5V2H7V1H15M14 3H8V4H6V5H5V6H4V8H3V14H4V16H5V17H6V18H8V19H14V18H16V17H17V16H18V14H19V8H18V6H17V5H16V4H14V3M8 6H10V8H11V7H12V6H14V8H13V9H12V10H11V11H12V12H13V13H14V16H12V14L11 14V13H10V16H8V6Z" fill="#322F28"/></g>
<g transform="translate(203 63)"><path d="M15 1V2H17V3H18V4H19V5H20V7H21V15H20V17H19V18H18V19H17V20H15V21H7V20H5V19H4V18H3V17H2V15H1V7H2V5H3V4H4V3H5V2H7V1H15M8 6V16H14V14H10V6H8Z" fill="#322F28"/></g>
<g transform="translate(231 63)"><path d="M15 1V2H17V3H18V4H19V5H20V7H21V15H20V17H19V18H18V19H17V20H15V21H7V20H5V19H4V18H3V17H2V15H1V7H2V5H3V4H4V3H5V2H7V1H15M14 3H8V4H6V5H5V6H4V8H3V14H4V16H5V17H6V18H8V19H14V18H16V17H17V16H18V14H19V8H18V6H17V5H16V4H14V3M8 6H10V14H14V16H8V6Z" fill="#322F28"/></g>
<g transform="translate(259 63)"><path d="M15 1V2H17V3H18V4H19V5H20V7H21V15H20V17H19V18H18V19H17V20H15V21H7V20H5V19H4V18H3V17H2V15H1V7H2V5H3V4H4V3H5V2H7V1H15M7 6L7 7L6 7V16H8V8H10V15H12V8H14V16H16V7L15 7L15 6H7Z" fill="#322F28"/></g>
<g transform="translate(287 63)"><path d="M15 1V2H17V3H18V4H19V5H20V7H21V15H20V17H19V18H18V19H17V20H15V21H7V20H5V19H4V18H3V17H2V15H1V7H2V5H3V4H4V3H5V2H7V1H15M14 3H8V4H6V5H5V6H4V8H3V14H4V16H5V17H6V18H8V19H14V18H16V17H17V16H18V14H19V8H18V6H17V5H16V4H14V3M7 6H15L15 7L16 7V16H14V8H12V15H10V8H8V16H6V7L7 7L7 6Z" fill="#322F28"/></g>
<g transform="translate(315 63)"><path d="M15 1V2H17V3H18V4H19V5H20V7H21V15H20V17H19V18H18V19H17V20H15V21H7V20H5V19H4V18H3V17H2V15H1V7H2V5H3V4H4V3H5V2H7V1H15M8 6V16H10V12H11V14H12V16H14V6H12V10H11V8L10 8V6H8Z" fill="#322F28"/></g>
<g transform="translate(343 63)"><path d="M15 1V2H17V3H18V4H19V5H20V7H21V15H20V17H19V18H18V19H17V20H15V21H7V20H5V19H4V18H3V17H2V15H1V7H2V5H3V4H4V3H5V2H7V1H15M14 3H8V4H6V5H5V6H4V8H3V14H4V16H5V17H6V18H8V19H14V18H16V17H17V16H18V14H19V8H18V6H17V5H16V4H14V3M8 6H10V8L11 8V10H12V6H14V16H12V14H11V12H10V16H8V6Z" fill="#322F28"/></g>
<g transform="translate(371 63)"><path d="M15 1V2H17V3H18V4H19V5H20V7H21V15H20V17H19V18H18V19H17V20H15V21H7V20H5V19H4V18H3V17H2V15H1V7H2V5H3V4H4V3H5V2H7V1H15M9 6L9 7L8 7V15H9V16H13L13 15L14 15V7H13V6H9M10 8H12V14H10V8Z" fill="#322F28"/></g>
<g transform="translate(399 63)"><path d="M15 1V2H17V3H18V4H19V5H20V7H21V15H20V17H19V18H18V19H17V20H15V21H7V20H5V19H4V18H3V17H2V15H1V7H2V5H3V4H4V3H5V2H7V1H15M14 3H8V4H6V5H5V6H4V8H3V14H4V16H5V17H6V18H8V19H14V18H16V17H17V16H18V14H19V8H18V6H17V5H16V4H14V3M9 6H13V7H14V15L13 15L13 16H9V15H8V7L9 7L9 6M10 8V14H12V8H10Z" fill="#322F28"/></g>
<g transform="translate(427 63)"><path d="M15 1V2H17V3H18V4H19V5H20V7H21V15H20V17H19V18H18V19H17V20H15V21H7V20H5V19H4V18H3V17H2V15H1V7H2V5H3V4H4V3H5V2H7V1H15M8 6V16H10V12H13L13 11L14 11V7H13V6H8M10 8H12V10H10V8Z" fill="#322F28"/></g>
<g transform="translate(455 63)"><path d="M15 1V2H17V3H18V4H19V5H20V7H21V15H20V17H19V18H18V19H17V20H15V21H7V20H5V19H4V18H3V17H2V15H1V7H2V5H3V4H4V3H5V2H7V1H15M14 3H8V4H6V5H5V6H4V8H3V14H4V16H5V17H6V18H8V19H14V18H16V17H17V16H18V14H19V8H18V6H17V5H16V4H14V3M8 6H13V7H14V11L13 11L13 12H10V16H8V6M10 8V10H12V8H10Z" fill="#322F28"/></g>
<g transform="translate(483 63)"><path d="M15 1V2H17V3H18V4H19V5H20V7H21V15H20V17H19V18H18V19H17V20H15V21H7V20H5V19H4V18H3V17H2V15H1V7H2V5H3V4H4V3H5V2H7V1H15M9 6L9 7L8 7V15H9L9 16L11 16V15L12 15V16H13L13 17H14V16H15V15H14V7L13 7L13 6H9M10 8H12V13H11L11 14H10V8Z" fill="#322F28"/></g>
<g transform="translate(511 63)"><path d="M15 1V2H17V3H18V4H19V5H20V7H21V15H20V17H19V18H18V19H17V20H15V21H7V20H5V19H4V18H3V17H2V15H1V7H2V5H3V4H4V3H5V2H7V1H15M14 3H8V4H6V5H5V6H4V8H3V14H4V16H5V17H6V18H8V19H14V18H16V17H17V16H18V14H19V8H18V6H17V5H16V4H14V3M9 6H13L13 7L14 7V15H15V16H14V17H13L13 16H12V15L11 15V16L9 16L9 15H8V7L9 7L9 6M10 8V14H11L11 13H12V8H10Z" fill="#322F28"/></g>
<g transform="translate(539 63)"><path d="M15 1V2H17V3H18V4H19V5H20V7H21V15H20V17H19V18H18V19H17V20H15V21H7V20H5V19H4V18H3V17H2V15H1V7H2V5H3V4H4V3H5V2H7V1H15M8 6V16H10V12H11V14H12V16H14V13H13L13 11L14 11V7L13 7L13 6H8M10 8H12V10H10V8Z" fill="#322F28"/></g>
<g transform="translate(35 91)"><path d="M15 1V2H17V3H18V4H19V5H20V7H21V15H20V17H19V18H18V19H17V20H15V21H7V20H5V19H4V18H3V17H2V15H1V7H2V5H3V4H4V3H5V2H7V1H15M14 3H8V4H6V5H5V6H4V8H3V14H4V16H5V17H6V18H8V19H14V18H16V17H17V16H18V14H19V8H18V6H17V5H16V4H14V3M8 6H13L13 7L14 7V11L13 11L13 13H14V16H12V14H11V12H10V16H8V6M10 8V10H12V8H10Z" fill="#322F28"/></g>
<g transform="translate(63 91)"><path d="M15 1V2H17V3H18V4H19V5H20V7H21V15H20V17H19V18H18V19H17V20H15V21H7V20H5V19H4V18H3V17H2V15H1V7H2V5H3V4H4V3H5V2H7V1H15M9 6L9 7L8 7V11L9 11L9 12H12V14H8V16H13L13 15L14 15V11L13 11L13 10H10V8H14V6H9Z" fill="#322F28"/></g>
<g transform="translate(91 91)"><path d="M15 1V2H17V3H18V4H19V5H20V7H21V15H20V17H19V18H18V19H17V20H15V21H7V20H5V19H4V18H3V17H2V15H1V7H2V5H3V4H4V3H5V2H7V1H15M14 3H8V4H6V5H5V6H4V8H3V14H4V16H5V17H6V18H8V19H14V18H16V17H17V16H18V14H19V8H18V6H17V5H16V4H14V3M9 6H14V8H10V10H13L13 11L14 11V15L13 15L13 16H8V14H12V12H9L9 11L8 11V7L9 7L9 6Z" fill="#322F28"/></g>
<g transform="translate(119 91)"><path d="M15 1V2H17V3H18V4H19V5H20V7H21V15H20V17H19V18H18V19H17V20H15V21H7V20H5V19H4V18H3V17H2V15H1V7H2V5H3V4H4V3H5V2H7V1H15M8 6V8H10V16H12V8H14V6H8Z" fill="#322F28"/></g>
<g transform="translate(147 91)"><path d="M15 1V2H17V3H18V4H19V5H20V7H21V15H20V17H19V18H18V19H17V20H15V21H7V20H5V19H4V18H3V17H2V15H1V7H2V5H3V4H4V3H5V2H7V1H15M14 3H8V4H6V5H5V6H4V8H3V14H4V16H5V17H6V18H8V19H14V18H16V17H17V16H18V14H19V8H18V6H17V5H16V4H14V3M8 6H14V8H12V16H10V8H8V6Z" fill="#322F28"/></g>
<g transform="translate(175 91)"><path d="M15 1V2H17V3H18V4H19V5H20V7H21V15H20V17H19V18H18V19H17V20H15V21H7V20H5V19H4V18H3V17H2V15H1V7H2V5H3V4H4V3H5V2H7V1H15M8 6V15L9 15L9 16H13L13 15L14 15V6H12V14H10V6H8Z" fill="#322F28"/></g>
<g transform="translate(203 91)"><path d="M15 1V2H17V3H18V4H19V5H20V7H21V15H20V17H19V18H18V19H17V20H15V21H7V20H5V19H4V18H3V17H2V15H1V7H2V5H3V4H4V3H5V2H7V1H15M14 3H8V4H6V5H5V6H4V8H3V14H4V16H5V17H6V18H8V19H14V18H16V17H17V16H18V14H19V8H18V6H17V5H16V4H14V3M8 6H10V14H12V6H14V15L13 15L13 16H9L9 15L8 15V6Z" fill="#322F28"/></g>
<g transform="translate(231 91)"><path d="M15 1V2H17V3H18V4H19V5H20V7H21V15H20V17H19V18H18V19H17V20H15V21H7V20H5V19H4V18H3V17H2V15H1V7H2V5H3V4H4V3H5V2H7V1H15M7 6V10H8V12H9V14H10V16H12V14H13V12H14V10H15V6H13V9H12V11H10V9H9V6H7Z" fill="#322F28"/></g>
<g transform="translate(259 91)"><path d="M15 1V2H17V3H18V4H19V5H20V7H21V15H20V17H19V18H18V19H17V20H15V21H7V20H5V19H4V18H3V17H2V15H1V7H2V5H3V4H4V3H5V2H7V1H15M14 3H8V4H6V5H5V6H4V8H3V14H4V16H5V17H6V18H8V19H14V18H16V17H17V16H18V14H19V8H18V6H17V5H16V4H14V3M7 6H9V9H10V11H12V9H13V6H15V10H14V12H13V14H12V16H10V14H9V12H8V10H7V6Z" fill="#322F28"/></g>
<g transform="translate(287 91)"><path d="M15 1V2H17V3H18V4H19V5H20V7H21V15H20V17H19V18H18V19H17V20H15V21H7V20H5V19H4V18H3V17H2V15H1V7H2V5H3V4H4V3H5V2H7V1H15M6 6V13H7V15H8V16H10V15H12V16H14V15H15V13H16V6H14V12H13V13H12V8H10V13H9V12H8V6H6Z" fill="#322F28"/></g>
<g transform="translate(315 91)"><path d="M15 1V2H17V3H18V4H19V5H20V7H21V15H20V17H19V18H18V19H17V20H15V21H7V20H5V19H4V18H3V17H2V15H1V7H2V5H3V4H4V3H5V2H7V1H15M14 3H8V4H6V5H5V6H4V8H3V14H4V16H5V17H6V18H8V19H14V18H16V17H17V16H18V14H19V8H18V6H17V5H16V4H14V3M6 6H8V12H9V13H10V8H12V13H13V12H14V6H16V13H15V15H14V16H12V15H10V16H8V15H7V13H6V6Z" fill="#322F28"/></g>
<g transform="translate(343 91)"><path d="M15 1V2H17V3H18V4H19V5H20V7H21V15H20V17H19V18H18V19H17V20H15V21H7V20H5V19H4V18H3V17H2V15H1V7H2V5H3V4H4V3H5V2H7V1H15M13 16H15V13H14V12H13V10H14V9H15V6H13V8H12V9H10V8H9V6H7V9H8V10H9V12H8V13H7V16H9V14H10V13H12V14H13V16Z" fill="#322F28"/></g>
<g transform="translate(371 91)"><path d="M15 1V2H17V3H18V4H19V5H20V7H21V15H20V17H19V18H18V19H17V20H15V21H7V20H5V19H4V18H3V17H2V15H1V7H2V5H3V4H4V3H5V2H7V1H15M14 3H8V4H6V5H5V6H4V8H3V14H4V16H5V17H6V18H8V19H14V18H16V17H17V16H18V14H19V8H18V6H17V5H16V4H14V3M13 16V14H12V13H10V14H9V16H7V13H8V12H9V10H8V9H7V6H9V8H10V9H12V8H13V6H15V9H14V10H13V12H14V13H15V16H13Z" fill="#322F28"/></g>
<g transform="translate(399 91)"><path d="M15 1V2H17V3H18V4H19V5H20V7H21V15H20V17H19V18H18V19H17V20H15V21H7V20H5V19H4V18H3V17H2V15H1V7H2V5H3V4H4V3H5V2H7V1H15M7 6V9H8V11H9V13H10V16H12V13H13V11H14V9H15V6H13V8H12V10H10V8H9V6H7Z" fill="#322F28"/></g>
<g transform="translate(427 91)"><path d="M15 1V2H17V3H18V4H19V5H20V7H21V15H20V17H19V18H18V19H17V20H15V21H7V20H5V19H4V18H3V17H2V15H1V7H2V5H3V4H4V3H5V2H7V1H15M14 3H8V4H6V5H5V6H4V8H3V14H4V16H5V17H6V18H8V19H14V18H16V17H17V16H18V14H19V8H18V6H17V5H16V4H14V3M7 6H9V8H10V10H12V8H13V6H15V9H14V11H13V13H12V16H10V13H9V11H8V9H7V6Z" fill="#322F28"/></g>
<g transform="translate(455 91)"><path d="M15 1V2H17V3H18V4H19V5H20V7H21V15H20V17H19V18H18V19H17V20H15V21H7V20H5V19H4V18H3V17H2V15H1V7H2V5H3V4H4V3H5V2H7V1H15M8 6V8H12V9H11V10H10V11H9V12H8V16H14V14H10V13H11V12H12V11H13V10H14V6H8Z" fill="#322F28"/></g>
<g transform="translate(483 91)"><path d="M15 1V2H17V3H18V4H19V5H20V7H21V15H20V17H19V18H18V19H17V20H15V21H7V20H5V19H4V18H3V17H2V15H1V7H2V5H3V4H4V3H5V2H7V1H15M14 3H8V4H6V5H5V6H4V8H3V14H4V16H5V17H6V18H8V19H14V18H16V17H17V16H18V14H19V8H18V6H17V5H16V4H14V3M8 6H14V10H13V11H12V12H11V13H10V14H14V16H8V12H9V11H10V10H11V9H12V8H8V6Z" fill="#322F28"/></g>
<g transform="translate(511 91)"><path d="M2 2H20V8H19V20H3V8H2V2M17 18V8H5V18H17M4 4V6H18V4H4M7 10H15V12H7V10Z" fill="#322F28"/></g>
<g transform="translate(539 91)"><path d="M1 15V7H2V5H3V4H4V3H5V2H7V1H15V2H17V3H18V4H19V5H20V7H21V15H20V17H19V18H18V19H17V20H15V21H7V20H5V19H4V18H3V17H2V15H1M5 16V17H6V18H8V19H14V18H16V17H17V16H18V14H19V8H18V6H17V5H16V4H14V3H8V4H6V5H5V6H4V8H3V14H4V16H5M14 15H7V8H9V11H10V10H11V9H12V8H13V7H14V8H15V9H14V10H13V11H12V12H11V13H14V15Z" fill="#322F28"/></g>
<g transform="translate(35 119)"><path d="M14 17H5V8H7V13H8V12H9V11H10V10H11V9H12V8H13V7L14 7V6H15V7H16V8L15 8V9H14V10H13V11H12V12H11V13H10V14H9V15H14V17Z" fill="#322F28"/></g>
<g transform="translate(63 119)"><path d="M15 21H7V20H5V19H4V18H3V17H2V15H1V7H2V5H3V4H4V3H5V2H7V1H15V2H17V3H18V4H19V5H20V7H21V15H20V17H19V18H18V19H17V20H15V21M16 17H17V16H18V14H19V8H18V6H17V5H16V4H14V3H8V4H6V5H5V6H4V8H3V14H4V16H5V17H6V18H8V19H14V18H16V17M15 8V15H8V13H11V12H10V11H9V10H8V9H7V8H8V7H9V8H10V9H11V10H12V11H13V8H15Z" fill="#322F28"/></g>
<g transform="translate(91 119)"><path d="M17 8V17H8V15H13V14H12V13H11V12H10V11H9V10H8V9H7L7 8H6V7H7V6H8L8 7H9V8H10V9H11V10H12V11H13V12H14V13H15V8H17Z" fill="#322F28"/></g>
<g transform="translate(119 119)"><path d="M20 10V12H19V13H18V14H17V15H16V16H15V17H14V18H13V19H12V20H10V19H9V18H8V17H7V16H6V15H5V14H4V13H3V12H2V10H7V2H15V10H20M16 12H13V4H9V12H6V13H7V14H8V15H9V16H10V17H12V16H13V15H14V14H15V13H16V12Z" fill="#322F28"/></g>
<g transform="translate(147 119)"><path d="M16 10V12H15V13H14V14H13V15H12V16H10V15H9V14H8V13H7V12H6V10H8V11H9V12H10V6H12V12H13V11H14V10H16M21 7V15H20V17H19V18H18V19H17V20H15V21H7V20H5V19H4V18H3V17H2V15H1V7H2V5H3V4H4V3H5V2H7V1H15V2H17V3H18V4H19V5H20V7H21M17 6V5H16V4H14V3H8V4H6V5H5V6H4V8H3V14H4V16H5V17H6V18H8V19H14V18H16V17H17V16H18V14H19V8H18V6H17Z" fill="#322F28"/></g>
<g transform="translate(175 119)"><path d="M3 12V14H4V15H5V16H6V17H7V18H9V16H8V15H7V14H11V13H13V12H14V10H15V3H13V9H12V11H10V12H7V11H8V10H9V8H7V9H6V10H5V11H4V12" fill="#322F28"/></g>
<g transform="translate(203 119)"><path d="M19 12V14H18V15H17V16H16V17H15V18H13V16H14V15H15V14H11V13H9V12H8V10H7V3H9V9H10V11H12V12H15V11H14V10H13V8H15V9H16V10H17V11H18V12" fill="#322F28"/></g>
<g transform="translate(231 119)"><path d="M12 17H10V16H9V15H8V14H7V13H6V11H8V12H9V13H10V4H12V13H13V12H14V11H16V13H15V14H14V15H13V16H12" fill="#322F28"/></g>
<g transform="translate(259 119)"><path d="M12 20H10V19H9V18H8V17H7V16H6V15H5V14H4V13H3V12H2V10H3V9H4V8H5V7H6V6H7V5H8V4H9V3H10V2H12V7H20V15H12V20M10 16V13H18V9H10V6H9V7H8V8H7V9H6V10H5V12H6V13H7V14H8V15H9V16H10Z" fill="#322F28"/></g>
<g transform="translate(287 119)"><path d="M12 16H10V15H9V14H8V13H7V12H6V10H7V9H8V8H9V7H10V6H12V8H11V9H10V10H16V12H10V13H11V14H12V16M15 21H7V20H5V19H4V18H3V17H2V15H1V7H2V5H3V4H4V3H5V2H7V1H15V2H17V3H18V4H19V5H20V7H21V15H20V17H19V18H18V19H17V20H15V21M16 17H17V16H18V14H19V8H18V6H17V5H16V4H14V3H8V4H6V5H5V6H4V8H3V14H4V16H5V17H6V18H8V19H14V18H16V17Z" fill="#322F28"/></g>
<g transform="translate(315 119)"><path d="M10 19H8V18H7V17H6V16H5V15H4V13H6V14H7V15H8V11H9V9H10V8H12V7H19V9H13V10H11V12H10V15H11V14H12V13H14V15H13V16H12V17H11V18H10" fill="#322F28"/></g>
<g transform="translate(343 119)"><path d="M19 10V12H18V13H17V14H16V15H15V16H13V14H14V13H15V12H7V13H8V14H9V16H7V15H6V14H5V13H4V12H3V10H4V9H5V8H6V7H7V6H9V8H8V9H7V10H15V9H14V8H13V6H15V7H16V8H17V9H18V10" fill="#322F28"/></g>
<g transform="translate(371 119)"><path d="M10 3H8V4H7V5H6V6H5V7H4V9H6V8H7V7H8V11H9V13H10V14H12V15H19V13H13V12H11V10H10V7H11V8H12V9H14V7H13V6H12V5H11V4H10" fill="#322F28"/></g>
<g transform="translate(399 119)"><path d="M5 12V10H6V9H7V8H8V7H9V6H11V8H10V9H9V10H18V12H9V13H10V14H11V16H9V15H8V14H7V13H6V12" fill="#322F28"/></g>
<g transform="translate(427 119)"><path d="M10 2H12V3H13V4H14V5H15V6H16V7H17V8H18V9H19V10H20V12H19V13H18V14H17V15H16V16H15V17H14V18H13V19H12V20H10V15H2V7H10V2M12 6V9H4V13H12V16H13V15H14V14H15V13H16V12H17V10H16V9H15V8H14V7H13V6H12Z" fill="#322F28"/></g>
<g transform="translate(455 119)"><path d="M7 1H15V2H17V3H18V4H19V5H20V7H21V15H20V17H19V18H18V19H17V20H15V21H7V20H5V19H4V18H3V17H2V15H1V7H2V5H3V4H4V3H5V2H7V1M6 5H5V6H4V8H3V14H4V16H5V17H6V18H8V19H14V18H16V17H17V16H18V14H19V8H18V6H17V5H16V4H14V3H8V4H6V5M10 6H12V7H13V8H14V9H15V10H16V12H15V13H14V14H13V15H12V16H10V14H11V13H12V12H6V10H12V9H11V8H10V6Z" fill="#322F28"/></g>
<g transform="translate(483 119)"><path d="M12 19H14V18H15V17H16V16H17V15H18V13H16V14H15V15H14V11H13V9H12V8H10V7H3V9H9V10H11V12H12V15H11V14H10V13H8V15H9V16H10V17H11V18H12" fill="#322F28"/></g>
<g transform="translate(511 119)"><path d="M12 3H14V4H15V5H16V6H17V7H18V9H16V8H15V7H14V11H13V13H12V14H10V15H3V13H9V12H11V10H12V7H11V8H10V9H8V7H9V6H10V5H11V4H12" fill="#322F28"/></g>
<g transform="translate(539 119)"><path d="M17 10V12H16V13H15V14H14V15H13V16H11V14H12V13H13V12H4V10H13V9H12V8H11V6H13V7H14V8H15V9H16V10" fill="#322F28"/></g>
<g transform="translate(35 147)"><path d="M7 1H15V2H17V3H18V4H19V5H20V7H21V15H20V17H19V18H18V19H17V20H15V21H7V20H5V19H4V18H3V17H2V15H1V7H2V5H3V4H4V3H5V2H7V1M6 5H5V6H4V8H3V14H4V16H5V17H6V18H8V19H14V18H16V17H17V16H18V14H19V8H18V6H17V5H16V4H14V3H8V4H6V5M7 14V7H14V9H11V10H12V11H13V12H14V13H15V14H14V15H13V14H12V13H11V12H10V11H9V14H7Z" fill="#322F28"/></g>
<g transform="translate(63 147)"><path d="M5 14V5H14V7H9V8H10V9H11V10H12V11H13V12H14V13H15L15 14H16V15H15V16H14L14 15H13V14H12V13H11V12H10V11H9V10H8V9H7V14H5Z" fill="#322F28"/></g>
<g transform="translate(91 147)"><path d="M21 7V15H20V17H19V18H18V19H17V20H15V21H7V20H5V19H4V18H3V17H2V15H1V7H2V5H3V4H4V3H5V2H7V1H15V2H17V3H18V4H19V5H20V7H21M17 6V5H16V4H14V3H8V4H6V5H5V6H4V8H3V14H4V16H5V17H6V18H8V19H14V18H16V17H17V16H18V14H19V8H18V6H17M8 7H15V14H13V11H12V12H11V13H10V14H9V15H8V14H7V13H8V12H9V11H10V10H11V9H8V7Z" fill="#322F28"/></g>
<g transform="translate(119 147)"><path d="M8 5H17V14H15V9H14V10H13V11H12V12H11V13H10V14H9V15L8 15V16H7V15H6V14L7 14V13H8V12H9V11H10V10H11V9H12V8H13V7H8V5Z" fill="#322F28"/></g>
<g transform="translate(147 147)"><path d="M2 12V10H3V9H4V8H5V7H6V6H7V5H8V4H9V3H10V2H12V3H13V4H14V5H15V6H16V7H17V8H18V9H19V10H20V12H15V20H7V12H2M6 10H9V18H13V10H16V9H15V8H14V7H13V6H12V5H10V6H9V7H8V8H7V9H6V10Z" fill="#322F28"/></g>
<g transform="translate(175 147)"><path d="M6 12V10H7V9H8V8H9V7H10V6H12V7H13V8H14V9H15V10H16V12H14V11H13V10H12V16H10V10H9V11H8V12H6M1 15V7H2V5H3V4H4V3H5V2H7V1H15V2H17V3H18V4H19V5H20V7H21V15H20V17H19V18H18V19H17V20H15V21H7V20H5V19H4V18H3V17H2V15H1M5 16V17H6V18H8V19H14V18H16V17H17V16H18V14H19V8H18V6H17V5H16V4H14V3H8V4H6V5H5V6H4V8H3V14H4V16H5Z" fill="#322F28"/></g>
<g transform="translate(203 147)"><path d="M10 3H12V4H13V5H14V6H15V7H16V9H14V8H13V7H12V15H13V14H14V13H16V15H15V16H14V17H13V18H12V19H10V18H9V17H8V16H7V15H6V13H8V14H9V15H10V7H9V8H8V9H6V7H7V6H8V5H9V4H10" fill="#322F28"/></g>
<g transform="translate(231 147)"><path d="M3 10V8H4V7H5V6H6V5H7V4H9V6H8V7H7V8H11V9H13V10H14V12H15V19H13V13H12V11H10V10H7V11H8V12H9V14H7V13H6V12H5V11H4V10" fill="#322F28"/></g>
<g transform="translate(259 147)"><path d="M19 10V8H18V7H17V6H16V5H15V4H13V6H14V7H15V8H11V9H9V10H8V12H7V19H9V13H10V11H12V10H15V11H14V12H13V14H15V13H16V12H17V11H18V10" fill="#322F28"/></g>
<g transform="translate(287 147)"><path d="M10 5H12V6H13V7H14V8H15V9H16V11H14V10H13V9H12V18H10V9H9V10H8V11H6V9H7V8H8V7H9V6H10" fill="#322F28"/></g>
<g transform="translate(315 147)"><path d="M20 2H17V4H16V5H15V6H14V7H13V8H12V9H11V10H10V11H9V12H8V13H7V14H6V15H3V16H2V17H1V18H2V19H3V20H4V21H5V20H6V19H7V16H8V15H9V14H10V13H11V12H12V11H13V10H14V9H15V8H16V7H17V6H18V5H20" fill="#322F28"/></g>
<g transform="translate(343 147)"><path d="M11 3H13V4H14V5H15V6H17V7H19V8H20V9H21V11H20V13H19V14H18V15H16V16H15V15H14V14H13V12H12V11H11V10H10V9H9V8H8V6H9V5H10V4H11M10 10V11H11V13H10V14H9V15H8V16H7V17H6V18H5V19H4V20H3V19H2V17H3V16H4V15H5V14H6V13H7V12H8V11H9V10" fill="#322F28"/></g>
<g transform="translate(371 147)"><path d="M3 8H4V6H6V5H7V2H8V1H14V2H15V5H16V6H18V8H19V20H18V21H4V20H3V8M9 3V5H13V3H9M17 14H5V15H7V17H8V15H17V14M12 11H13V9H12V8H10V9H9V11H10V12H12V11Z" fill="#322F28"/></g>
<g transform="translate(399 147)"><path d="M17 15H9V17H7V15H5V19H17V15M17 9H16V8H15V7H7V8H6V9H5V13H17V9M13 11H9V10H10V9H12V10H13V11M3 8H4V6H6V5H7V2H8V1H14V2H15V5H16V6H18V8H19V20H18V21H4V20H3V8M9 3V5H13V3H9Z" fill="#322F28"/></g>
<g transform="translate(427 147)"><path d="M3 5H18V6H19V9H20V13H19V16H18V17H3V16H2V6H3V5M4 7V15H17V7H4Z" fill="#322F28"/></g>
<g transform="translate(455 147)"><path d="M5 8H7V14H5V8M8 8H10V14H8V8M18 5V6H19V9H20V13H19V16H18V17H3V16H2V6H3V5H18M17 7H4V15H17V7M11 8H13V14H11V8M14 8H16V14H14V8Z" fill="#322F28"/></g>
<g transform="translate(483 147)"><path d="M7 8V14H5V8H7M18 5V6H19V9H20V13H19V16H18V17H3V16H2V6H3V5H18M17 7H4V15H17V7Z" fill="#322F28"/></g>
<g transform="translate(511 147)"><path d="M5 8H7V14H5V8M8 8H10V14H8V8M18 5V6H19V9H20V13H19V16H18V17H3V16H2V6H3V5H18M17 7H4V15H17V7Z" fill="#322F28"/></g>
<g transform="translate(539 147)"><path d="M5 8H7V14H5V8M8 8H10V14H8V8M18 5V6H19V9H20V13H19V16H18V17H3V16H2V6H3V5H18M17 7H4V15H17V7M11 8H13V14H11V8Z" fill="#322F28"/></g>
<g transform="translate(35 175)"><path d="M15 1H11V2H10V3H9V4H8V8H12V9H11V10H10V11H9V12H8V13H7V14H6V15H5V16H4V17H3V18H2V19H1V20H2V21H3V20H4V19H5V18H6V17H7V16H8V15H9V14H10V13H11V12H12V11H13V10H14V14H18V13H19V12H20V11H21V7H17V5H15" fill="#322F28"/></g>
<g transform="translate(63 175)"><path d="M3 2H4V1H18V2H19V20H18V21H4V20H3V2M11 9H10V8H9V9H8V10H7V3H5V19H17V3H12V10H11V9Z" fill="#322F28"/></g>
<g transform="translate(91 175)"><path d="M5 2H17V3H18V20H16V19H14V18H12V17H10V18H8V19H6V20H4V3H5V2M6 4V17H7V16H9V15H10V14H12V15H13V16H15V17H16V4H6Z" fill="#322F28"/></g>
<g transform="translate(119 175)"><path d="M10 4V2H12V4H10M6 4V2H8V4H6M14 4V2H16V4H14M18 2H20V20H2V2H4V18H18V2Z" fill="#322F28"/></g>
<g transform="translate(147 175)"><path d="M10 4V2H12V4H10M18 12V10H20V12H18M18 16V14H20V16H18M6 4V2H8V4H6M18 8V6H20V8H18M18 4V2H20V4H18M14 4V2H16V4H14M2 20V2H4V18H20V20H2Z" fill="#322F28"/></g>
<g transform="translate(175 175)"><path d="M4 12H2V10H4V12M12 4H10V2H12V4M16 4H14V2H16V4M4 16H2V14H4V16M8 4H6V2H8V4M4 4H2V2H4V4M4 8H2V6H4V8M20 20H2V18H18V2H20V20Z" fill="#322F28"/></g>
<g transform="translate(203 175)"><path d="M20 12H18V10H20V12M4 12H2V10H4V12M12 4H10V2H12V4M16 4H14V2H16V4M20 8H18V6H20V8M20 4H18V2H20V4M20 16H18V14H20V16M4 16H2V14H4V16M8 4H6V2H8V4M4 4H2V2H4V4M4 8H2V6H4V8M20 20H2V18H20V20Z" fill="#322F28"/></g>
<g transform="translate(231 175)"><path d="M2 10H10V2H12V10H20V12H12V20H10V12H2V10M6 18H8V20H6V18M2 14H4V16H2V14M2 18H4V20H2V18M2 2H4V4H2V2M2 6H4V8H2V6M6 2H8V4H6V2M14 2H16V4H14V2M18 2H20V4H18V2M18 6H20V8H18V6M14 18H16V20H14V18M18 18H20V20H18V18M18 14H20V16H18V14Z" fill="#322F28"/></g>
<g transform="translate(259 175)"><path d="M12 2V4H10V2H12M12 18V20H10V18H12M8 2V4H6V2H8M16 2V4H14V2H16M16 18V20H14V18H16M8 18V20H6V18H8M4 2V20H2V2H4M18 2H20V20H18V2Z" fill="#322F28"/></g>
<g transform="translate(287 175)"><path d="M10 20V18H12V20H10M10 4V2H12V4H10M18 12V10H20V12H18M18 16V14H20V16H18M14 20V18H16V20H14M18 20V18H20V20H18M6 20V18H8V20H6M6 4V2H8V4H6M18 8V6H20V8H18M18 4V2H20V4H18M14 4V2H16V4H14M2 20V2H4V20H2Z" fill="#322F28"/></g>
<g transform="translate(315 175)"><path d="M2 10H4V12H2V10M18 10H20V12H18V10M10 2H12V4H10V2M10 18H12V20H10V18M6 18H8V20H6V18M2 14H4V16H2V14M2 18H4V20H2V18M2 2H4V4H2V2M2 6H4V8H2V6M6 2H8V4H6V2M14 2H16V4H14V2M18 2H20V4H18V2M18 6H20V8H18V6M14 18H16V20H14V18M18 18H20V20H18V18M18 14H20V16H18V14Z" fill="#322F28"/></g>
<g transform="translate(343 175)"><path d="M2 2H20V20H2V2M4 4V18H18V4H4M10 6H12V8H10V6M10 10H12V12H10V10M6 10H8V12H6V10M14 10H16V12H14V10M10 14H12V16H10V14Z" fill="#322F28"/></g>
<g transform="translate(371 175)"><path d="M12 2V4H10V2H12M12 18V20H10V18H12M4 10V12H2V10H4M4 6V8H2V6H4M8 2V4H6V2H8M4 2V4H2V2H4M16 2V4H14V2H16M16 18V20H14V18H16M4 14V16H2V14H4M4 18V20H2V18H4M8 18V20H6V18H8M20 2V20H18V2H20Z" fill="#322F28"/></g>
<g transform="translate(399 175)"><path d="M2 10H4V12H2V10M18 10H20V12H18V10M2 14H4V16H2V14M2 6H4V8H2V6M18 6H20V8H18V6M18 14H20V16H18V14M2 18H20V20H2V18M2 4V2H20V4H2Z" fill="#322F28"/></g>
<g transform="translate(427 175)"><path d="M18 10H20V12H18V10M18 6H20V8H18V6M18 14H20V16H18V14M20 18V20H2V2H20V4H4V18H20Z" fill="#322F28"/></g>
<g transform="translate(455 175)"><path d="M12 18V20H10V18H12M16 18V20H14V18H16M8 18V20H6V18H8M4 20H2V2H20V20H18V4H4V20Z" fill="#322F28"/></g>
<g transform="translate(483 175)"><path d="M18 10H20V12H18V10M10 18H12V20H10V18M6 18H8V20H6V18M18 6H20V8H18V6M14 18H16V20H14V18M18 18H20V20H18V18M18 14H20V16H18V14M2 2H20V4H4V20H2V2Z" fill="#322F28"/></g>
<g transform="translate(511 175)"><path d="M4 12H2V10H4V12M4 16H2V14H4V16M4 8H2V6H4V8M2 4V2H20V20H2V18H18V4H2Z" fill="#322F28"/></g>
<g transform="translate(539 175)"><path d="M12 18V20H10V18H12M4 10V12H2V10H4M4 6V8H2V6H4M16 18V20H14V18H16M4 14V16H2V14H4M4 18V20H2V18H4M8 18V20H6V18H8M20 2V20H18V4H2V2H20Z" fill="#322F28"/></g>
<g transform="translate(35 203)"><path d="M2 10H4V12H2V10M18 10H20V12H18V10M10 18H12V20H10V18M6 18H8V20H6V18M2 14H4V16H2V14M2 18H4V20H2V18M2 6H4V8H2V6M18 6H20V8H18V6M14 18H16V20H14V18M18 18H20V20H18V18M18 14H20V16H18V14M2 2H20V4H2V2Z" fill="#322F28"/></g>
<g transform="translate(63 203)"><path d="M1 3H11V4H13V5H16V4H17V2H20V5H18V6H17V9H18V11H19V21H17V19H15V18H14V17H13V16H12V15H11V14H9V15H8V16H7V19H6V20H5V21H4V20H3V19H2V18H1V17H2V16H3V15H6V14H7V13H8V11H7V10H6V9H5V8H4V7H3V5H1V3M16 18H17V12H16V10H15V9H14V10H13V11H12V12H11V13H12V14H13V15H14V16H15V17H16V18M12 7V6H10V5H4V6H5V7H6V8H7V9H8V10H9V11H10V10H11V9H12V8H13V7H12Z" fill="#322F28"/></g>
<g transform="translate(91 203)"><path d="M1 3H11V4H13V5H15V6H16V7H17V9H18V11H19V21H17V19H15V18H14V17H13V16H12V15H11V14H10V13H9V12H8V11H7V10H6V9H5V8H4V7H3V5H1M16 18H17V12H16V10H15V8H14V7H12V6H10V5H4V6H5V7H6V8H7V9H8V10H9V11H10V12H11V13H12V14H13V15H14V16H15V17H16" fill="#322F28"/></g>
<g transform="translate(119 203)"><path d="M12 0V2H10V0H12M12 4V7H10V4H12M12 9V12H9V10H10V9H12M.002 10H2V12H.002V10M4 10H7V12H4V10Z" fill="#322F28"/></g>
<g transform="translate(147 203)"><path d="M22 12H20V10H22V12M18 12H15V10H18V12M13 12H10V9H12V10H13V12M12 0V2H10V0H12M12 4V7H10V4H12Z" fill="#322F28"/></g>
<g transform="translate(175 203)"><path d="M10 22V20H12V22H10M10 18V15H12V18H10M10 13V10H13V12H12V13H10M22 12H20V10H22V12M18 12H15V10H18V12Z" fill="#322F28"/></g>
<g transform="translate(203 203)"><path d="M0 10H2V12H0V10M4 10H7V12H4V10M9 10H12V13H10V12H9V10M10 22V20H12V22H10M10 18V15H12V18H10Z" fill="#322F28"/></g>
<g transform="translate(231 203)"><path d="M0 12H22V14H0V12M0 8H22V10H0V8Z" fill="#322F28"/></g>
<g transform="translate(259 203)"><path d="M12 22V19H11V17H10V15H9V14H8V13H7V12H5V11H3V10H0V8H4V9H6V10H8V11H9V12H10V13H11V14H12V16H13V18H14V22H12M0 12H2V13H5V14H6V15H7V16H8V17H9V20H10V22H8V21H7V18H6V17H5V16H4V15H1V14H0V12Z" fill="#322F28"/></g>
<g transform="translate(287 203)"><path d="M22 10H19V11H17V12H15V13H14V14H13V15H12V17H11V19H10V22H8V18H9V16H10V14H11V13H12V12H13V11H14V10H16V9H18V8H22V10M12 22V20H13V17H14V16H15V15H16V14H17V13H20V12H22V14H21V15H18V16H17V17H16V18H15V21H14V22H12Z" fill="#322F28"/></g>
<g transform="translate(315 203)"><path d="M0 12H3V11H5V10H7V9H8V8H9V7H10V5H11V3H12V0H14V4H13V6H12V8H11V9H10V10H9V11H8V12H6V13H4V14H0V12M10 0V2H9V5H8V6H7V7H6V8H5V9H2V10H0V8H1V7H4V6H5V5H6V4H7V1H8V0H10Z" fill="#322F28"/></g>
<g transform="translate(343 203)"><path d="M10 0V3H11V5H12V7H13V8H14V9H15V10H17V11H19V12H22V14H18V13H16V12H14V11H13V10H12V9H11V8H10V6H9V4H8V0H10M22 10H20V9H17V8H16V7H15V6H14V5H13V2H12V0H14V1H15V4H16V5H17V6H18V7H21V8H22V10Z" fill="#322F28"/></g>
<g transform="translate(371 203)"><path d="M12 22V0H14V22H12M8 22V0H10V22H8Z" fill="#322F28"/></g>
<g transform="translate(399 203)"><path d="M13 15H9V14H8V13H7V9H8V8H9V7H10V0H12V7H13V8H14V9H15V10H22V12H15V13H14V14H13V15M9 12H10V13H12V12H13V10H12V9H10V10H9V12Z" fill="#322F28"/></g>
<g transform="translate(427 203)"><path d="M0 10H12V22H10V12H0V10Z" fill="#322F28"/></g>
<g transform="translate(455 203)"><path d="M15 9V13H14V14H13V15H9V14H8V13H7V12H0V10H7V9H8V8H9V7H10V0H12V7H13V8H14V9H15M12 13V12H13V10H12V9H10V10H9V12H10V13H12Z" fill="#322F28"/></g>
<g transform="translate(483 203)"><path d="M10 22V10H22V12H12V22H10Z" fill="#322F28"/></g>
<g transform="translate(511 203)"><path d="M0 10H22L22 12H0V10Z" fill="#322F28"/></g>
<g transform="translate(539 203)"><path d="M0 10H4V11H7V12H8V13H9V14H10V15H11V18H12V22H10V19H9V16H8V15H7V14H6V13H3V12H0V10Z" fill="#322F28"/></g>
<g transform="translate(35 231)"><path d="M10 22V18H11V15H12V14H13V13H14V12H15V11H18V10H22V12H19V13H16V14H15V15H14V16H13V19H12V22H10Z" fill="#322F28"/></g>
<g transform="translate(63 231)"><path d="M12 0V4H11V7H10V8H9V9H8V10H7V11H4V12H0V10H3V9H6V8H7V7H8V6H9V3H10V0H12Z" fill="#322F28"/></g>
<g transform="translate(91 231)"><path d="M22 12H18V11H15V10H14V9H13V8H12V7H11V4H10V0H12V3H13V6H14V7H15V8H16V9H19V10H22V12Z" fill="#322F28"/></g>
<g transform="translate(119 231)"><path d="M7 13V9H8V8H9V7H13V8H14V9H15V10H22V12H15V13H14V14H13V15H12V22H10V15H9V14H8V13H7M10 9V10H9V12H10V13H12V12H13V10H12V9H10Z" fill="#322F28"/></g>
<g transform="translate(147 231)"><path d="M12 0V12H0V10H10V0H12Z" fill="#322F28"/></g>
<g transform="translate(175 231)"><path d="M9 7H13V8H14V9H15V13H14V14H13V15H12V22H10V15H9V14H8V13H7V12H0V10H7V9H8V8H9V7M13 10H12V9H10V10H9V12H10V13H12V12H13V10Z" fill="#322F28"/></g>
<g transform="translate(203 231)"><path d="M22 12H10V0H12V10H22V12Z" fill="#322F28"/></g>
<g transform="translate(231 231)"><path d="M12 0V22H10V0H12Z" fill="#322F28"/></g>
<g transform="translate(259 231)"><path d="M0 0H22V22H0V0M2 2V20H20V2H2Z" fill="#322F28"/></g>
<g transform="translate(287 231)"><path d="M4 0V2H2V4H0V0H4M2 6V10H0V6H2M2 12V16H0V12H2M2 18V20H4V22H0V18H2M6 0H10V2H6V0M12 0H16V2H12V0M18 0H22V4H20V2H18V0M18 22V20H20V18H22V22H18M16 22H12V20H16V22M10 22H6V20H10V22M20 6H22V10H20V6M20 12H22V16H20V12Z" fill="#322F28"/></g>
<g transform="translate(315 231)"><path d="M0 18H2V20H4V22H0V18M6 20H10V22H6V20M12 20H16V22H12V20M18 20H20V18H22V22H18V20M0 16V12H2V16H0M0 10V7H2V10H0M0 5V1H2V5H0M22 1V5H20V1H22M22 7V10H20V7H22M22 12V16H20V12H22Z" fill="#322F28"/></g>
<g transform="translate(343 231)"><path d="M0 18H2V20H4V22H0V18M6 20H10V22H6V20M12 20H16V22H12V20M18 20H21V22H18V20M0 16V12H2V16H0M0 10V7H2V10H0M0 5V1H2V5H0Z" fill="#322F28"/></g>
<g transform="translate(371 231)"><path d="M18 22V20H20V18H22V22H18M20 16V12H22V16H20M20 10V6H22V10H20M20 4V1H22V4H20M16 22H12V20H16V22M10 22H7V20H10V22M5 22H1V20H5V22Z" fill="#322F28"/></g>
<g transform="translate(399 231)"><path d="M1 20H5V22H1V20M7 20H10V22H7V20M12 20H16V22H12V20M18 20H21V22H18V20Z" fill="#322F28"/></g>
<g transform="translate(427 231)"><path d="M20 21V17H22V21H20M20 15V12H22V15H20M20 10V6H22V10H20M20 4V1H22V4H20M0 21V17H2V21H0M0 15V12H2V15H0M0 10V6H2V10H0M0 4V1H2V4H0Z" fill="#322F28"/></g>
<g transform="translate(455 231)"><path d="M0 21V17H2V21H0M0 15V12H2V15H0M0 10V6H2V10H0M0 4V1H2V4H0Z" fill="#322F28"/></g>
<g transform="translate(483 231)"><path d="M20 21V17H22V21H20M20 15V12H22V15H20M20 10V6H22V10H20M20 4V1H22V4H20Z" fill="#322F28"/></g>
<g transform="translate(511 231)"><path d="M4 0V2H2V4H0V0H4M2 6V10H0V6H2M2 12V16H0V12H2M2 18V20H4V22H0V18H2M6 0H10V2H6V0M12 0H15V2H12V0M17 0H21V2H17V0M21 22H17V20H21V22M15 22H12V20H15V22M10 22H6V20H10V22Z" fill="#322F28"/></g>
<g transform="translate(539 231)"><path d="M18 22V20H20V18H22V22H18M20 16V12H22V16H20M20 10V6H22V10H20M20 4V2H18V0H22V4H20M16 22H12V20H16V22M10 22H7V20H10V22M5 22H1V20H5V22M1 0H5V2H1V0M7 0H10V2H7V0M12 0H16V2H12V0Z" fill="#322F28"/></g>
<g transform="translate(35 259)"><path d="M21 2H17V0H21V2M15 2H12V0H15V2M10 2H6V0H10V2M4 2H1V0H4V2M21 22H17V20H21V22M15 22H12V20H15V22M10 22H6V20H10V22M4 22H1V20H4V22Z" fill="#322F28"/></g>
<g transform="translate(63 259)"><path d="M22 4H20V2H18V0H22V4M16 2H12V0H16V2M10 2H6V0H10V2M4 2H2V4H0V0H4V2M22 6V10H20V6H22M22 12V15H20V12H22M22 17V21H20V17H22M0 21V17H2V21H0M0 15V12H2V15H0M0 10V6H2V10H0Z" fill="#322F28"/></g>
<g transform="translate(91 259)"><path d="M4 0V2H2V4H0V0H4M2 6V10H0V6H2M2 12V16H0V12H2M2 18V21H0V18H2M6 0H10V2H6V0M12 0H15V2H12V0M17 0H21V2H17V0Z" fill="#322F28"/></g>
<g transform="translate(119 259)"><path d="M22 4H20V2H18V0H22V4M16 2H12V0H16V2M10 2H6V0H10V2M4 2H1V0H4V2M22 6V10H20V6H22M22 12V15H20V12H22M22 17V21H20V17H22Z" fill="#322F28"/></g>
<g transform="translate(147 259)"><path d="M1 0H5V2H1V0M7 0H10V2H7V0M12 0H16V2H12V0M18 0H21V2H18V0Z" fill="#322F28"/></g>
<g transform="translate(175 259)"><path d="M22 22H0V0H2V20H20V0H22V22Z" fill="#322F28"/></g>
<g transform="translate(203 259)"><path d="M0 0H2V20H22V22H0V0Z" fill="#322F28"/></g>
<g transform="translate(231 259)"><path d="M0 22V20H20V0H22V22H0Z" fill="#322F28"/></g>
<g transform="translate(259 259)"><path d="M0 20H22V22H0V20Z" fill="#322F28"/></g>
<g transform="translate(287 259)"><path d="M0 22V0H2V22H0M20 22V0H22V22H20Z" fill="#322F28"/></g>
<g transform="translate(315 259)"><path d="M0 22V0H2V22H0Z" fill="#322F28"/></g>
<g transform="translate(343 259)"><path d="M20 22V0H22V22H20Z" fill="#322F28"/></g>
<g transform="translate(371 259)"><path d="M22 0V2H17V3H13V4H11V5H9V6H8V7H7V8H6V9H5V11H4V13H3V17H2V22H.004V16H1V12H2V10H3V8H4V7H5V6H6V5H7V4H8V3H10V2H12V1H16V0H22Z" fill="#322F28"/></g>
<g transform="translate(399 259)"><path d="M0 22V20H5V19H9V18H11V17H13V16H14V15H15V14H16V13H17V11H18V9H19V5H20V0H22V6H21V10H20V12H19V14H18V15H17V16H16V17H15V18H14V19H12V20H10V21H6V22H0Z" fill="#322F28"/></g>
<g transform="translate(427 259)"><path d="M0 0H2V5H3V9H4V11H5V13H6V14H7V15H8V16H9V17H11V18H13V19H17V20H22V22H16V21H12V20H10V19H8V18H7V17H6V16H5V15H4V14H3V12H2V10H1V6H0V0Z" fill="#322F28"/></g>
<g transform="translate(455 259)"><path d="M22 22H20V17H19V13H18V11H17V9H16V8H15V7H14V6H13V5H11V4H9V3H5V2H.004V0H6V1H10V2H12V3H14V4H15V5H16V6H17V7H18V8H19V10H20V12H21V16H22V22Z" fill="#322F28"/></g>
<g transform="translate(483 259)"><path d="M0 22V0H22V2H2V20H22V22H0Z" fill="#322F28"/></g>
<g transform="translate(511 259)"><path d="M22 0V22H0V20H20V2H0V0H22Z" fill="#322F28"/></g>
<g transform="translate(539 259)"><path d="M0 0H22V2H0V0M0 20H22V22H0V20Z" fill="#322F28"/></g>
<g transform="translate(35 287)"><path d="M0 0H22V22H20V2H2V22H0V0Z" fill="#322F28"/></g>
<g transform="translate(63 287)"><path d="M22 0V2H2V22H0V0H22Z" fill="#322F28"/></g>
<g transform="translate(91 287)"><path d="M22 22H20V2H.002V0H22V22Z" fill="#322F28"/></g>
<g transform="translate(119 287)"><path d="M0 0H22L22 2H0V0Z" fill="#322F28"/></g>
<g transform="translate(147 287)"><path d="M4 2H18V3H19V4H20V18H19V19H18V20H4V19H3V18H2V4H3V3H4V2M17 5V4H5V5H4V17H5V18H17V17H18V5H17Z" fill="#322F28"/></g>
<g transform="translate(175 287)"><path d="M2 6H7V3H8V2H14V3H15V6H20V7H21V19H20V20H2V19H1V7H2V6M9 6H13V4H9V6M19 8H3V18H19V8Z" fill="#322F28"/></g>
<g transform="translate(203 287)"><path d="M3 7H6V6H7V5H8V4H7V3H6V2H7V1H8V2H9V3H10V4H12V3H13V2H14V1H15V2H16V3H15V4H14V5H15V6H16V7H19V9H17V11H19V13H17V15H19V17H16V18H15V19H14V20H8V19H7V18H6V17H3V15H5V13H3V11H5V9H3V7M9 13V15H13V13H9M9 9V11H13V9H9Z" fill="#322F28"/></g>
<g transform="translate(231 287)"><path d="M3 7H6V6H7V5H8V4H7V3H6V2H7V1H8V2H9V3H10V4H12V3H13V2H14V1H15V2H16V3H15V4H14V5H15V6H16V7H19V9H17V11H19V13H17V15H19V17H16V18H15V19H14V20H8V19H7V18H6V17H3V15H5V13H3V11H5V9H3V7M13 18V17H14V16H15V8H14V7H13V6H9V7H8V8H7V16H8V17H9V18H13M9 13H13V15H9V13M9 9H13V11H9V9Z" fill="#322F28"/></g>
<g transform="translate(259 287)"><path d="M19 20H3V19H2V3H3V2H5V0H7V2H15V0H17V2H19V3H20V19H19V20M4 4V6H18V4H4M4 8V18H18V8H4M14 14H16V16H14V14M10 14H12V16H10V14M6 14H8V16H6V14M6 10H8V12H6V10M10 10H12V12H10V10M14 10H16V12H14V10Z" fill="#322F28"/></g>
<g transform="translate(287 287)"><path d="M19 20H3V19H2V3H3V2H5V0H7V2H15V0H17V2H19V3H20V19H19V20M4 4V6H18V4H4M4 8V18H18V8H4M12 12H16V16H12V12Z" fill="#322F28"/></g>
<g transform="translate(315 287)"><path d="M21 7V15H20V17H19V18H18V19H17V20H15V21H7V20H5V19H4V18H3V17H2V15H1V7H2V5H3V4H4V3H5V2H7V1H15V2H17V3H18V4H19V5H20V7H21M17 6V5H16V4H14V3H8V4H6V5H7V6H8V7H9V8H10V9H11V10H12V11H13V12H14V13H15V14H16V15H17V16H18V14H19V8H18V6H17M14 16V15H13V14H12V13H11V12H10V11H9V10H8V9H7V8H6V7H5V6H4V8H3V14H4V16H5V17H6V18H8V19H14V18H16V17H15V16H14Z" fill="#322F28"/></g>
<g transform="translate(343 287)"><path d="M17 8V10H5V8H17M5 12H15V14H5V12M2 3H20V4H21V18H20V19H2V18H1V4H2V3M3 5V17H19V5H3Z" fill="#322F28"/></g>
<g transform="translate(371 287)"><path d="M2 3H20V4H21V18H20V19H2V18H1V4H2V3M3 5V17H19V5H3Z" fill="#322F28"/></g>
<g transform="translate(399 287)"><path d="M19 14V16H6V15H5V11H4V8H3V3H1V1H5V4H21V8H20V11H19V12H7V14H19M5 7H6V10H18V7H19V6H5V7M7 17H9V18H10V20H9V21H7V20H6V18H7V17M15 17H17V18H18V20H17V21H15V20H14V18H15V17Z" fill="#322F28"/></g>
<g transform="translate(427 287)"><path d="M2 2H4V18H20V20H2V2M6 16V8H10V16H6M11 16V4H15V16H11M16 16V11H20V16H16Z" fill="#322F28"/></g>
<g transform="translate(455 287)"><path d="M7 4H16V5H18V6H19V7H20V8H21V14H20V15H19V16H18V17H16V18H8V19H4V20H1V18H3V17H4V15H3V14H2V8H3V7H4V6H5V5H7V4M17 8V7H15V6H8V7H6V8H5V9H4V13H5V14H6V15H8V16H15V15H17V14H18V13H19V9H18V8H17Z" fill="#322F28"/></g>
<g transform="translate(483 287)"><path d="M4 11H6V12H7V13H8V14H10V13H11V12H12V11H13V10H14V9H15V8H16V7H17V6H19V8H18V9H17V10H16V11H15V12H14V13H13V14H12V15H11V16H10V17H8V16H7V15H6V14H5V13H4V11Z" fill="#322F28"/></g>
<g transform="translate(511 287)"><path d="M3 4H4V3H18V4H19V18H18V19H4V18H3V4M5 17H17V5H5V17Z" fill="#322F28"/></g>
<g transform="translate(539 287)"><path d="M13 12H14V13H15V15H13V14H12V13H10V14H9V15H7V13H8V12H9V10H8V9H7V7H9V8H10V9H12V8H13V7H15V9H14V10H13V12M18 19H4V18H3V4H4V3H18V4H19V18H18V19M5 5V17H17V5H5Z" fill="#322F28"/></g>
<g transform="translate(35 315)"><path d="M3 4H4V3H18V4H17V5H5V17H17V11H18V10H19V18H18V19H4V18H3V4M6 9H8V10H9V11H10V12H12V11H13V10H14V9H15V8H16V7H17V6H18V5H19V4H21V6H20V7H19V8H18V9H17V10H16V11H15V12H14V13H13V14H12V15H10V14H9V13H8V12H7V11H6V9Z" fill="#322F28"/></g>
<g transform="translate(63 315)"><path d="M16 9V11H15V12H14V13H13V14H12V15H10V14H9V13H8V12H7V11H6V9H8V10H9V11H10V12H12V11H13V10H14V9H16M15 1V2H17V3H18V4H19V5H20V7H21V15H20V17H19V18H18V19H17V20H15V21H7V20H5V19H4V18H3V17H2V15H1V7H2V5H3V4H4V3H5V2H7V1H15M14 3H8V4H6V5H5V6H4V8H3V14H4V16H5V17H6V18H8V19H14V18H16V17H17V16H18V14H19V8H18V6H17V5H16V4H14V3Z" fill="#322F28"/></g>
<g transform="translate(91 315)"><path d="M16 10H17V9H18V7H16V8H15V9H14V10H13V11H12V12H10V11H9V10H8V9H7V8H6V7H4V9H5V10H6V11H7V12H8V13H9V14H10V15H12V14H13V13H14V12H15V11H16" fill="#322F28"/></g>
<g transform="translate(119 315)"><path d="M13 16H11V15H10V14H9V13H8V12H7V10H8V9H9V8H10V7H11V6H13V8H12V9H11V10H10V12H11V13H12V14H13V16M15 1V2H17V3H18V4H19V5H20V7H21V15H20V17H19V18H18V19H17V20H15V21H7V20H5V19H4V18H3V17H2V15H1V7H2V5H3V4H4V3H5V2H7V1H15M14 3H8V4H6V5H5V6H4V8H3V14H4V16H5V17H6V18H8V19H14V18H16V17H17V16H18V14H19V8H18V6H17V5H16V4H14V3Z" fill="#322F28"/></g>
<g transform="translate(147 315)"><path d="M12 16V17H13V18H15V16H14V15H13V14H12V13H11V12H10V10H11V9H12V8H13V7H14V6H15V4H13V5H12V6H11V7H10V8H9V9H8V10H7V12H8V13H9V14H10V15H11V16" fill="#322F28"/></g>
<g transform="translate(175 315)"><path d="M9 16H11V15H12V14H13V13H14V12H15V10H14V9H13V8H12V7H11V6H9V8H10V9H11V10H12V12H11V13H10V14H9V16M15 1V2H17V3H18V4H19V5H20V7H21V15H20V17H19V18H18V19H17V20H15V21H7V20H5V19H4V18H3V17H2V15H1V7H2V5H3V4H4V3H5V2H7V1H15M14 3H8V4H6V5H5V6H4V8H3V14H4V16H5V17H6V18H8V19H14V18H16V17H17V16H18V14H19V8H18V6H17V5H16V4H14V3Z" fill="#322F28"/></g>
<g transform="translate(203 315)"><path d="M10 6V5H9V4H7V6H8V7H9V8H10V9H11V10H12V12H11V13H10V14H9V15H8V16H7V18H9V17H10V16H11V15H12V14H13V13H14V12H15V10H14V9H13V8H12V7H11V6" fill="#322F28"/></g>
<g transform="translate(231 315)"><path d="M6 13V11H7V10H8V9H9V8H10V7H12V8H13V9H14V10H15V11H16V13H14V12H13V11H12V10H10V11H9V12H8V13H6M15 1V2H17V3H18V4H19V5H20V7H21V15H20V17H19V18H18V19H17V20H15V21H7V20H5V19H4V18H3V17H2V15H1V7H2V5H3V4H4V3H5V2H7V1H15M14 3H8V4H6V5H5V6H4V8H3V14H4V16H5V17H6V18H8V19H14V18H16V17H17V16H18V14H19V8H18V6H17V5H16V4H14V3Z" fill="#322F28"/></g>
<g transform="translate(259 315)"><path d="M6 12H5V13H4V15H6V14H7V13H8V12H9V11H10V10H12V11H13V12H14V13H15V14H16V15H18V13H17V12H16V11H15V10H14V9H13V8H12V7H10V8H9V9H8V10H7V11H6" fill="#322F28"/></g>
<g transform="translate(287 315)"><path d="M15 1V2H17V3H18V4H19V5H20V7H21V15H20V17H19V18H18V19H17V20H15V21H7V20H5V19H4V18H3V17H2V15H1V7H2V5H3V4H4V3H5V2H7V1H15M14 3H8V4H6V5H5V6H4V8H3V14H4V16H5V17H6V18H8V19H14V18H16V17H17V16H18V14H19V8H18V6H17V5H16V4H14V3Z" fill="#322F28"/></g>
<g transform="translate(315 315)"><path d="M2 5H3V4H7V2H9V1H13V2H15V4H19V5H20V20H19V21H3V20H2V5M10 3V5H12V3H10M18 6H16V8H6V6H4V19H18V6Z" fill="#322F28"/></g>
<g transform="translate(343 315)"><path d="M10 5H12V11H13V12H14V13H15V15H13V14H12V13H11V12H10V5M15 1V2H17V3H18V4H19V5H20V7H21V15H20V17H19V18H18V19H17V20H15V21H7V20H5V19H4V18H3V17H2V15H1V7H2V5H3V4H4V3H5V2H7V1H15M14 3H8V4H6V5H5V6H4V8H3V14H4V16H5V17H6V18H8V19H14V18H16V17H17V16H18V14H19V8H18V6H17V5H16V4H14V3Z" fill="#322F28"/></g>
<g transform="translate(371 315)"><path d="M1 20V18H17V20H1M2 3H19V4H20V10H19V11H16V14H15V15H14V16H4V15H3V14H2V3M16 5V9H18V5H16M4 5V13H5V14H13V13H14V5H4Z" fill="#322F28"/></g>
<g transform="translate(399 315)"><path d="M2 2H20V3H21V17H20V18H12V19H11V20H10V21H6V18H2V17H1V3H2V2M3 4V16H8V19H9V18H10V17H11V16H19V4H3M5 7H17V9H5V7M5 11H15V13H5V11Z" fill="#322F28"/></g>
<g transform="translate(427 315)"><path d="M2 2H20V3H21V17H20V18H12V19H11V20H10V21H6V18H2V17H1V3H2V2M3 4V16H8V19H9V18H10V17H11V16H19V4H3Z" fill="#322F28"/></g>
<g transform="translate(455 315)"><path d="M6 10V12H5V13H4V14H3V15H2V16H0V14H1V13H2V12H3V10H2V9H1V8H0V6H2V7H3V8H4V9H5V10M10 6H16V8H12V10H16V12H12V14H16V16H10" fill="#322F28"/></g>
<g transform="translate(483 315)"><path d="M8 4H10V5.5H11V8H12V4H14V14H12V12H11V10H10V14H8M10 17V16H12V17H13V18H14V19H15V20H16V22H14V21H13V20H12V19H10V20H9V21H8V22H6V20H7V19H8V18H9V17" fill="#322F28"/></g>
<g transform="translate(511 315)"><path d="M4 6H6V7.5H7V10H8V6H10V16H8V14H7V12H6V16H4M12 6H18V8H14V10H18V12H14V14H18V16H12" fill="#322F28"/></g>
<g transform="translate(539 315)"><path d="M2 6H4V7.5H5V10H6V6H8V16H6V14H5V12H4V16H2M10 6H12V12H13V13H14V8H16V13H17V12H18V6H20V13H19V15H18V16H16V15H14V16H12V15H11V13H10" fill="#322F28"/></g>
<g transform="translate(35 343)"><path d="M10 6H12V5H13V4H14V3H15V2H16V0H14V1H13V2H12V3H10V2H9V1H8V0H6V2H7V3H8V4H9V5H10M9 8H14V10H10V12H13V13H14V17H13V18H8V16H12V14H9V13H8V9H9" fill="#322F28"/></g>
<g transform="translate(63 343)"><path d="M5 6H10V8H6V10H9V11H10V15H9V16H4V14H8V12H5V11H4V7H5M12 6H18V8H14V10H18V12H14V14H18V16H12" fill="#322F28"/></g>
<g transform="translate(91 343)"><path d="M3 6H8V8H4V10H7V11H8V15H7V16H2V14H6V12H3V11H2V7H3M10 6H12V12H13V13H14V8H16V13H17V12H18V6H20V13H19V15H18V16H16V15H14V16H12V15H11V13H10" fill="#322F28"/></g>
<g transform="translate(119 343)"><path d="M4 6H6V12H7V13H8V8H10V13H11V12H12V6H14V13H13V15H12V16H10V15H8V16H6V15H5V13H4M16 10V12H17V13H18V14H19V15H20V16H22V14H21V13H20V12H19V10H20V9H21V8H22V6H20V7H19V8H18V9H17V10" fill="#322F28"/></g>
<g transform="translate(147 343)"><path d="M15 1V2H17V3H18V4H19V5H20V7H21V15H20V17H19V18H18V19H17V20H15V21H7V20H5V19H4V18H3V17H2V15H1V7H2V5H3V4H4V3H5V2H7V1H15M14 3H8V4H6V5H5V6H4V8H3V14H4V16H5V17H6V18H8V19H14V18H16V17H17V16H18V14H19V8H18V6H17V5H16V4H14V3M10 9V8H12V7H14V6H16V8H15V10H14V12H13V13H12V14H10V15H8V16H6V14H7V12H8V10H9V9H10M12 10H10V12H12V10Z" fill="#322F28"/></g>
<g transform="translate(175 343)"><path d="M2 4H20V5H21V17H20V18H2V17H1V5H2V4M3 6V8H19V6H3M3 16H19V11H3V16Z" fill="#322F28"/></g>
<g transform="translate(203 343)"><path d="M2 17H20V19H2V17M4 6L4 7H5L5 8L6 8L6 7H7V6H8V5H9V4L10 4L10 3H12L12 4L13 4V5H14L14 6H15V7H16L16 8H17V7L18 7V6H19V5H20V16H2V5H3V6H4M7 14H18V10H15V9H14V8H13V7H12V6H10V7H9V8H8V9H7V10H4V14H7Z" fill="#322F28"/></g>
<g transform="translate(231 343)"><path d="M12 3V8H22V15H17V20H10V15H0V8H5V3H12M10 5H7V8H10V5M7 10V13H10V10H7M5 10H2V13H5V10M17 10V13H20V10H17M15 15H12V18H15V15M12 10V13H15V10H12Z" fill="#322F28"/></g>
<g transform="translate(259 343)"><path d="M7 2H15V3H17V4H18V5H19V17H18V18H17V19H15V20H7V19H5V18H4V17H3V5H4V4H5V3H7V2M8 16V15H6V14H5V16H6V17H8V18H14V17H16V16H17V14H16V15H14V16H8M8 11V10H6V9H5V12H7V13H9V14H13V13H15V12H17V9H16V10H14V11H8M9 8V9H13V8H15V7H17V6H16V5H14V4H8V5H6V6H5V7H7V8H9Z" fill="#322F28"/></g>
<g transform="translate(287 343)"><path d="M2 1H20V2H20.94V20H20V21H2V20H1.06V2H2V1M3 3V19H19V3H3M4 4H18V12H4V4M5 14H8V17H5V14M12 15H14V17H12V15M15 14H17V16H15V14Z" fill="#322F28"/></g>
<g transform="translate(315 343)"><path d="M6 2H16V3H17V4H18V5H19V6H20V12H19V13H18V14H17V15H16V16H15V17H14V18H13V19H12V20H10V19H9V18H8V17H7V16H6V15H5V14H4V13H3V12H2V6H3V5H4V4H5V3H6V2M15 5V4H14V6H15V7H17V6H16V5H15M12 6V4H10V6H9V7H13V6H12M8 6V4H7V5H6V6H5V7H7V6H8M4 11H5V12H6V13H7V14H8V12H7V9H4V11M10 12V16H12V12H13V9H9V12H10M14 12V14H15V13H16V12H17V11H18V9H15V12H14Z" fill="#322F28"/></g>
<g transform="translate(343 343)"><path d="M10 10V12H9V10H10M6 2H16V3H17V18H19V20H3V18H5V3H6V2M7 4V18H11V4H7M13 4V5H14V4H13M14 5V6H15V5H14M14 6H13V7H14V6M14 7V8H15V7H14M14 8H13V9H14V8M14 9V10H15V9H14M14 10H13V11H14V10M14 11V12H15V11H14M14 12H13V13H14V12M14 13V14H15V13H14M14 14H13V15H14V14M14 15V16H15V15H14M14 16H13V17H14V16M14 17V18H15V17H14Z" fill="#322F28"/></g>
<g transform="translate(371 343)"><path d="M12 10H14V12H12V10M16 2V3H17V18H19V20H3V18H5V3H6V2H16M15 4H7V18H15V4Z" fill="#322F28"/></g>
<g transform="translate(399 343)"><path d="M18 17V19H4V17H18M14 2V8H18V9H17V10H16V11H15V12H14V13H13V14H12V15H10V14H9V13H8V12H7V11H6V10H5V9H4V8H8V2H14M12 4H10V10H9V11H10V12H12V11H13V10H12V4Z" fill="#322F28"/></g>
<g transform="translate(427 343)"><path d="M1 5H2V4H20V5H21V18H20V19H2V18H1V5M3 17H19V9H18V10H16V11H14V12H12V13H10V12H8V11H6V10H4V9H3V17M19 6H3V7H5V8H7V9H9V10H13V9H15V8H17V7H19V6Z" fill="#322F28"/></g>
<g transform="translate(455 343)"><path d="M13 1V2H14V3H15V4H16V5H17V6H18V7H19V20H18V21H4V20H3V2H4V1H13M13 4H12V8H16V7H15V6H14V5H13V4M5 3V19H17V10H11V9H10V3H5Z" fill="#322F28"/></g>
<g transform="translate(483 343)"><path d="M8 1H14V2H15V5H14V7H15V9H16V11H17V13H18V14H19V16H20V20H19V21H3V20H2V16H3V14H4V13H5V11H6V9H7V7H8V5H7V2H8V1M10 3V8H9V10H8V12H7V13H6V15H5V17H4V19H18V17H17V15H16V14H15V12H14V10H13V8H12V3H10Z" fill="#322F28"/></g>
<g transform="translate(511 343)"><path d="M9 1H13V3H14V8H15V9H16V10H17V11H18V17H17V18H16V19H15V20H14V21H8V20H7V19H6V18H5V17H4V11H5V10H6V9H7V8H8V3H9V1M10 5V9H9V10H8V11H7V12H6V16H7V17H8V18H9V19H13V18H14V17H15V16H16V12H15V11H14V10H13V9H12V5H10Z" fill="#322F28"/></g>
<g transform="translate(539 343)"><path d="M11 11H13V13H11V11M13 1V3H14V8H15V9H16V10H17V11H18V17H17V18H16V19H15V20H14V21H8V20H7V19H6V18H5V17H4V11H5V10H6V9H7V8H8V3H9V1H13M12 5H10V9H9V10H8V11H7V12H6V14H7V13H9V14H10V15H11V16H13V15H14V14H15V13H16V12H15V11H14V10H13V9H12V5Z" fill="#322F28"/></g>
<g transform="translate(35 371)"><path d="M11 12H13V14H11V12M14 1V2H15V5H14V7H15V9H16V11H17V13H18V14H19V16H20V20H19V21H3V20H2V16H3V14H4V13H5V11H6V9H7V7H8V5H7V2H8V1H14M12 3H10V8H9V10H8V12H7V13H6V15H5V17H6V16H7V15H8V14H9V15H10V16H11V17H12V18H14V17H15V15H16V14H15V12H14V10H13V8H12V3Z" fill="#322F28"/></g>
<g transform="translate(63 371)"><path d="M2 3H3V2H16V3H17V4H18V5H19V6H20V19H19V20H3V19H2V3M18 7H17V6H16V5H15V9H6V4H4V18H6V13H16V18H18V7M11 4V7H13V4H11M14 18V15H8V18H14Z" fill="#322F28"/></g>
<g transform="translate(91 371)"><path d="M1 4H2V3H9V4H10V5H20V6H21V18H20V19H2V18H1V4M3 9H19V7H9V6H8V5H3V9M3 17H19V11H3V17Z" fill="#322F28"/></g>
<g transform="translate(119 371)"><path d="M2 3H9V4H10V5H20V6H21V18H20V19H2V18H1V4H2V3M3 7V17H19V7H3Z" fill="#322F28"/></g>
<g transform="translate(147 371)"><path d="M14 1V2H15V7H20V8H21V14H20V15H15V20H14V21H8V20H7V15H2V14H1V8H2V7H7V2H8V1H14M13 8H9V9H8V13H9V14H13V13H14V9H13V8Z" fill="#322F28"/></g>
<g transform="translate(175 371)"><path d="M14 1V2H15V7H20V8H21V14H20V15H15V20H14V21H8V20H7V15H2V14H1V8H2V7H7V2H8V1H14M7 9H3V13H7V9M9 15V19H13V15H9Z" fill="#322F28"/></g>
<g transform="translate(203 371)"><path d="M14 1V2H15V7H20V8H21V14H20V15H15V20H14V21H8V20H7V15H2V14H1V8H2V7H7V2H8V1H14M19 9H15V13H19V9M9 15V19H13V15H9Z" fill="#322F28"/></g>
<g transform="translate(231 371)"><path d="M14 1V2H15V7H20V8H21V14H20V15H15V20H14V21H8V20H7V15H2V14H1V8H2V7H7V2H8V1H14M13 15H9V19H13V15Z" fill="#322F28"/></g>
<g transform="translate(259 371)"><path d="M14 1V2H15V7H20V8H21V14H20V15H15V20H14V21H8V20H7V15H2V14H1V8H2V7H7V2H8V1H14M13 3H9V9H3V13H9V19H13V13H19V9H13V3Z" fill="#322F28"/></g>
<g transform="translate(287 371)"><path d="M14 1V2H15V7H20V8H21V14H20V15H15V20H14V21H8V20H7V15H2V14H1V8H2V7H7V2H8V1H14M7 9H3V13H7V9Z" fill="#322F28"/></g>
<g transform="translate(315 371)"><path d="M14 1V2H15V7H20V8H21V14H20V15H15V20H14V21H8V20H7V15H2V14H1V8H2V7H7V2H8V1H14M19 9H15V13H19V9Z" fill="#322F28"/></g>
<g transform="translate(343 371)"><path d="M14 1V2H15V7H20V8H21V14H20V15H15V20H14V21H8V20H7V15H2V14H1V8H2V7H7V2H8V1H14M7 9H3V13H7V9M9 3V7H13V3H9Z" fill="#322F28"/></g>
<g transform="translate(371 371)"><path d="M14 1V2H15V7H20V8H21V14H20V15H15V20H14V21H8V20H7V15H2V14H1V8H2V7H7V2H8V1H14M19 9H15V13H19V9M9 3V7H13V3H9Z" fill="#322F28"/></g>
<g transform="translate(399 371)"><path d="M14 1V2H15V7H20V8H21V14H20V15H15V20H14V21H8V20H7V15H2V14H1V8H2V7H7V2H8V1H14M13 3H9V7H13V3Z" fill="#322F28"/></g>
<g transform="translate(427 371)"><path d="M12 20H10V19H9V18H8V17H7V16H6V15H5V14H4V13H3V12H2V10H1V5H2V4H3V3H4V2H9V3H10V4H12V3H13V2H18V3H19V4H20V5H21V10H20V12H19V13H18V14H17V15H16V16H15V17H14V18H13V19H12V20M5 11V12H6V13H7V14H8V15H9V16H10V17H12V16H13V15H14V14H15V13H16V12H17V11H18V9H19V6H18V5H17V4H14V5H13V6H12V7H10V6H9V5H8V4H5V5H4V6H3V9H4V11H5Z" fill="#322F28"/></g>
<g transform="translate(455 371)"><path d="M1 4H2V3H20V4H21V18H20V19H2V18H1V4M3 14H4V13H5V12H6V11H7V10H8V9H10V10H11V11H12V12H13V13H14V14H15V15H16V16H17V17H19V5H3V14M14 17V16H13V15H12V14H11V13H10V12H8V13H7V14H6V15H5V16H4V17H14M13 8H14V7H16V8H17V10H16V11H14V10H13V8Z" fill="#322F28"/></g>
<g transform="translate(483 371)"><path d="M15 4V5H16V6H17V7H18V8H19V9H20V10H21V12H20V13H19V14H18V15H17V16H16V17H15V18H2V16H3V15H4V14H5V13H6V12H7V10H6V9H5V8H4V7H3V6H2V4H15M14 16V15H15V14H16V13H17V12H18V10H17V9H16V8H15V7H14V6H6V7H7V8H8V9H9V10H10V12H9V13H8V14H7V15H6V16H14Z" fill="#322F28"/></g>
<g transform="translate(511 371)"><path d="M2 4H15V5H16V6H17V7H18V8H19V9H20V10H21V12H20V13H19V14H18V15H17V16H16V17H15V18H2V17H1V5H2V4M16 13H17V12H18V10H17V9H16V8H15V7H14V6H3V16H14V15H15V14H16V13Z" fill="#322F28"/></g>
<g transform="translate(539 371)"><path d="M8 21V15H4V13H6V6H7V4H8V3H9V2H13V3H14V4H15V6H16V13H18V15H14V21H12V15H10V21H8M12 5V4H10V5H9V7H8V13H9V12H13V13H14V7H13V5H12Z" fill="#322F28"/></g>
<g transform="translate(35 399)"><path d="M8 19H14V21H8V19M8 18V14H7V13H6V12H5V11H4V5H5V4H6V3H7V2H8V1H14V2L15 2V3H16V4H17V5H18V11H17V12H16V13H15V14H14V18H8M13 12H14V11H15V10H16V6H15V5H14V4L13 4V3H9V4H8V5H7V6H6V10H7V11H8V12H9V13H10V16H12V13H13V12Z" fill="#322F28"/></g>
<g transform="translate(63 399)"><path d="M10 13H12V14H13V16H12V17H10V16H9V14H10V13M14 2V3H15V4H16V9H17V10H18V20H17V21H5V20H4V10H5V9H14V5H13V4H9V5H8V7H6V4H7V3H8V2H14M16 11H6V19H16V11Z" fill="#322F28"/></g>
<g transform="translate(91 399)"><path d="M10 12H12V13H13V15H12V16H10V15H9V13H10V12M8 2H14V3H15V4H16V8H17V9H18V19H17V20H5V19H4V9H5V8H6V4H7V3H8V2M9 4V5H8V8H14V5H13V4H9M16 10H6V18H16V10Z" fill="#322F28"/></g>
<g transform="translate(119 399)"><path d="M5 1H17V2H18V20H17V21H5V20H4V14H6V19H16V3H6V8H4V2H5V1M8 6H10V7H11V8H12V9H13V10H14V12H13V13H12V14H11V15H10V16H8V14H9V13H10V12H2V10H10V9H9V8H8V6Z" fill="#322F28"/></g>
<g transform="translate(147 399)"><path d="M17 1V2H18V6H17V5H16V3H6V19H16V17H17V16H18V20H17V21H5V20H4V2H5V1H17M13 6H15V7H16V8H17V9H18V10H19V12H18V13H17V14H16V15H15V16H13V14H14V13H15V12H8V10H15V9H14V8H13V6Z" fill="#322F28"/></g>
<g transform="translate(175 399)"><path d="M2 4H4V3H6V2H10V3H13V4H15V3H17V2H20V18H18V19H16V20H12V19H9V18H7V19H5V20H2V4M4 6V17H6V16H7V5H5V6H4M12 5H9V16H10V17H13V6H12V5M16 6H15V17H17V16H18V5H16V6Z" fill="#322F28"/></g>
<g transform="translate(203 399)"><path d="M7 4H9V5H10V6H11V7H12V8H13V9H14V10H15V11H16V12H17V13H18V15H7V4M9 8V13H14V12H13V11H12V10H11V9H10V8H9Z" fill="#322F28"/></g>
<g transform="translate(231 399)"><path d="M4 15V13H5V12H6V11H7V10H8V9H9V8H10V7H11V6H12V5H13V4H15V15H4M8 13H13V8H12V9H11V10H10V11H9V12H8V13Z" fill="#322F28"/></g>
<g transform="translate(259 399)"><path d="M17 9V8H5V9H6V10H7V11H8V12H9V13H10V14H12V13H13V12H14V11H15V10H16V9" fill="#322F28"/></g>
<g transform="translate(287 399)"><path d="M4 8H18V10H17V11H16V12H15V13H14V14H13V15H12V16H10V15H9V14H8V13H7V12H6V11H5V10H4V8M8 10V11H9V12H10V13H12V12H13V11H14V10H8Z" fill="#322F28"/></g>
<g transform="translate(315 399)"><path d="M13 17H14V5H13V6H12V7H11V8H10V9H9V10H8V12H9V13H10V14H11V15H12V16H13" fill="#322F28"/></g>
<g transform="translate(343 399)"><path d="M12 4H14V5H15V6H16V7H17V8H18V9H19V10H20V12H19V13H18V14H17V15H16V16H15V17H14V18H12V4M10 4V18H8V17H7V16H6V15H5V14H4V13H3V12H2V10H3V9H4V8H5V7H6V6H7V5H8V4H10M14 8V14H15V13H16V12H17V10H16V9H15V8H14M8 8H7V9H6V10H5V12H6V13H7V14H8V8Z" fill="#322F28"/></g>
<g transform="translate(371 399)"><path d="M15 4V18H13V17H12V16H11V15H10V14H9V13H8V12H7V10H8V9H9V8H10V7H11V6H12V5H13V4H15M13 8H12V9H11V10H10V12H11V13H12V14H13V8Z" fill="#322F28"/></g>
<g transform="translate(399 399)"><path d="M9 5H8V17H9V16H10V15H11V14H12V13H13V12H14V10H13V9H12V8H11V7H10V6H9" fill="#322F28"/></g>
<g transform="translate(427 399)"><path d="M7 18V4H9V5H10V6H11V7H12V8H13V9H14V10H15V12H14V13H13V14H12V15H11V16H10V17H9V18H7M9 14H10V13H11V12H12V10H11V9H10V8H9V14Z" fill="#322F28"/></g>
<g transform="translate(455 399)"><path d="M18 7V9H17V10H16V11H15V12H14V13H13V14H12V15H11V16H10V17H9V18H7V7H18M14 9H9V14H10V13H11V12H12V11H13V10H14V9Z" fill="#322F28"/></g>
<g transform="translate(483 399)"><path d="M15 18H13V17H12V16H11V15H10V14H9V13H8V12H7V11H6V10H5V9H4V7H15V18M13 14V9H8V10H9V11H10V12H11V13H12V14H13Z" fill="#322F28"/></g>
<g transform="translate(511 399)"><path d="M4 10V8H5V7H6V6H7V5H8V4H9V3H10V2H12V3H13V4H14V5H15V6H16V7H17V8H18V10H4M4 12H18V14H17V15H16V16H15V17H14V18H13V19H12V20H10V19H9V18H8V17H7V16H6V15H5V14H4V12M8 8H14V7H13V6H12V5H10V6H9V7H8V8M8 14V15H9V16H10V17H12V16H13V15H14V14H8Z" fill="#322F28"/></g>
<g transform="translate(539 399)"><path d="M5 13V14H17V13H16V12H15V11H14V10H13V9H12V8H10V9H9V10H8V11H7V12H6V13" fill="#322F28"/></g>
<g transform="translate(35 427)"><path d="M18 14H4V12H5V11H6V10H7V9H8V8H9V7H10V6H12V7H13V8H14V9H15V10H16V11H17V12H18V14M14 12V11H13V10H12V9H10V10H9V11H8V12H14Z" fill="#322F28"/></g>
<g transform="translate(63 427)"><path d="M2 1H20V2H21V16H20V17H5V18H4V19H3V20H2V21H1V2H2V1M4 15H19V3H3V16H4V15M6 8H8V10H6V8M10 8H12V10H10V8M14 8H16V10H14V8Z" fill="#322F28"/></g>
<g transform="translate(91 427)"><path d="M2 1H20V2H21V16H20V17H5V18H4V19H3V20H2V21H1V2H2V1M3 3V16H4V15H19V3H3M5 6H17V8H5V6M5 10H14V12H5V10Z" fill="#322F28"/></g>
<g transform="translate(119 427)"><path d="M2 1H20V2H21V16H20V17H5V18H4V19H3V20H2V21H1V2H2V1M3 3V16H4V15H19V3H3Z" fill="#322F28"/></g>
<g transform="translate(147 427)"><path d="M10 21V18H8V17H6V16H5V15H4V13H3V9H5V12H6V14H7V15H9V16H13V15H15V14H16V12H17V9H19V13H18V15H17V16H16V17H14V18H12V21H10M8 13V12H7V3H8V2H9V1H13V2H14V3H15V12H14V13H13V14H9V13H8M9 11H10V12H12V11H13V4H12V3H10V4H9V11Z" fill="#322F28"/></g>
<g transform="translate(175 427)"><path d="M21 7V15H20V17H19V18H18V19H17V20H15V21H7V20H5V19H4V18H3V17H2V15H1V7H2V5H3V4H4V3H5V2H7V1H15V2H17V3H18V4H19V5H20V7H21M17 6V5H16V4H14V3H8V4H6V5H5V6H4V8H3V14H4V16H5V17H6V18H8V19H14V18H16V17H17V16H18V14H19V8H18V6H17M16 10V12H6V10H16Z" fill="#322F28"/></g>
<g transform="translate(203 427)"><path d="M14 6H16V7H17V9H16V10H14V9H13V7H14V6M2 2H20V3H21V15H20V16H13V18H15V20H7V18H9V16H2V15H1V3H2V2M3 4V9H4V8H5V7H6V6H8V7H9V8H10V9H11V10H12V11H13V12H14V13H15V14H19V4H3M10 11H9V10H8V9H6V10H5V11H4V12H3V14H12V13H11V12H10V11Z" fill="#322F28"/></g>
<g transform="translate(231 427)"><path d="M2 2H20V3H21V15H20V16H13V18H15V20H7V18H9V16H2V15H1V3H2V2M3 4V14H19V4H3Z" fill="#322F28"/></g>
<g transform="translate(259 427)"><path d="M11 2H18V7H13V18H12V19H11V20H7V19H6V18H5V14H6V13H7V12H11V2M11 15H10V14H8V15H7V17H8V18H10V17H11V15Z" fill="#322F28"/></g>
<g transform="translate(287 427)"><path d="M9 17H10V16H12V17H13V19H12V20H10V19H9V17M10 15V14H9V13H8.09V12H7V10H6V8H5V6H4V3H5V2H17V3H18V6H17V8H16V10H15V12H14V13H13V14H12V15H10M7 5V7H8V9H9V11H10.09V12H12V11H13V9H14V7H15V5H16V4H6V5H7Z" fill="#322F28"/></g>
<g transform="translate(315 427)"><path d="M15 3V4H16V5H17V6H18V7H19V8H20V9H21V18H20V19H2V18H1V4H2V3H15M15 6H14V10H18V9H17V8H16V7H15V6M3 5V17H19V12H13V11H12V5H3Z" fill="#322F28"/></g>
<g transform="translate(343 427)"><path d="M19 2V20H18V21H4V20H3V18H1V16H3V12H1V10H3V6H1V4H3V2H4V1H18V2H19M14 9H13V8H12V9H11V10H10V3H7V19H17V3H15V10H14V9M3 4V6H5V4H3M5 10H3V12H5V10M5 16H3V18H5V16Z" fill="#322F28"/></g>
<g transform="translate(371 427)"><path d="M12 20V21H10V20H8V18H14V20H12M2 15H3V14H4V6H5V4H6V3H8V2H10V1H12V2H14V3H16V4H17V6H18V14H19V15H20V17H2V15M6 15H16V7H15V5H13V4H9V5H7V7H6V15Z" fill="#322F28"/></g>
<g transform="translate(399 427)"><path d="M2 6H3V5H4V4H5V3H6V2H7V1H15V2H16V3H17V4H18V5H19V6H20V7H21V15H20V16H19V17H18V18H17V19H16V20H15V21H7V20H6V19H5V18H4V17H3V16H2V15H1V7H2V6M15 17H16V16H17V15H18V14H19V8H18V7H17V6H16V5H15V4H14V3H8V4H7V5H6V6H5V7H4V8H3V14H4V15H5V16H6V17H7V18H8V19H14V18H15V17M10 6H12V13H10V6M10 14H12V16H10V14Z" fill="#322F28"/></g>
<g transform="translate(427 427)"><path d="M2 6H3V5H4V4H5V3H6V2H7V1H15V2H16V3H17V4H18V5H19V6H20V7H21V15H20V16H19V17H18V18H17V19H16V20H15V21H7V20H6V19H5V18H4V17H3V16H2V15H1V7H2V6M15 17H16V16H17V15H18V14H19V8H18V7H17V6H16V5H15V4H14V3H8V4H7V5H6V6H5V7H4V8H3V14H4V15H5V16H6V17H7V18H8V19H14V18H15V17Z" fill="#322F28"/></g>
<g transform="translate(455 427)"><path d="M6 4H9V18H6V4M13 18V4H16V18H13Z" fill="#322F28"/></g>
<g transform="translate(483 427)"><path d="M16 2H17V3H18V4H19V5H20V6H19V7H18V8H17V7H16V6H15V5H14V4H15V3H16M12 6H14V7H15V8H16V10H15V11H14V12H13V13H12V14H11V15H10V16H9V17H8V18H7V19H6V20H2V16H3V15H4V14H5V13H6V12H7V11H8V10H9V9H10V8H11V7H12" fill="#322F28"/></g>
<g transform="translate(511 427)"><path d="M8 2H11V3H13V4H15V5H17V7H18V9H19V11H20V14H18V12H17V11H16V10H14V9H13V8H12V6H11V5H10V4H8M11 9H12V10H13V11H12V12H11V13H10V14H9V15H8V16H7V17H6V18H5V19H4V20H3V21H2V20H1V19H2V18H3V17H4V16H5V15H6V14H7V13H8V12H9V11H10V10H11" fill="#322F28"/></g>
<g transform="translate(539 427)"><path d="M4 0H18V1H19V2H20V20H19V21H18V22H4V21H3V20H2V2H3V1H4V0M4 18V19H5V20H17V19H18V18H4M17 2H5V3H4V15H5V16H17V15H18V3H17V2M13 4V5H14V6H15V8H14V9H13V10H10V14H8V4H13M12 6H10V8H12V6Z" fill="#322F28"/></g>
<g transform="translate(35 455)"><path d="M10 5V6H11V7H12V8H13V9H14V10H15V12H14V13H13V14H12V15H11V16H10V17H9V18H7V4H9V5H10M12 10H11V9H10V8H9V14H10V13H11V12H12V10Z" fill="#322F28"/></g>
<g transform="translate(63 455)"><path d="M21 7V15H20V17H19V18H18V19H17V20H15V21H7V20H5V19H4V18H3V17H2V15H1V7H2V5H3V4H4V3H5V2H7V1H15V2H17V3H18V4H19V5H20V7H21M17 6V5H16V4H14V3H8V4H6V5H5V6H4V8H3V14H4V16H5V17H6V18H8V19H14V18H16V17H17V16H18V14H19V8H18V6H17M10 6H12V10H16V12H12V16H10V12H6V10H10V6Z" fill="#322F28"/></g>
<g transform="translate(91 455)"><path d="M8 2H14V3H16V4H17V5H18V6H19V8H20V14H19V16H18V17H17V18H16V19H14V20H8V19H6V18H5V17H4V16H3V14H2V8H3V6H4V5H5V4H6V3H8V2M9 4V5H7V6H6V7H5V9H4V13H5V15H6V16H7V17H9V18H13V17H15V16H16V15H17V13H18V9H17V7H16V6H15V5H13V4H9M13 7V8H14V9H15V13H14V14H13V15H9V14H8V13H7V9H8V8H9V7H13Z" fill="#322F28"/></g>
<g transform="translate(119 455)"><path d="M8 2H14V3H16V4H17V5H18V6H19V8H20V14H19V16H18V17H17V18H16V19H14V20H8V19H6V18H5V17H4V16H3V14H2V8H3V6H4V5H5V4H6V3H8V2M9 4V5H7V6H6V7H5V9H4V13H5V15H6V16H7V17H9V18H13V17H15V16H16V15H17V13H18V9H17V7H16V6H15V5H13V4H9Z" fill="#322F28"/></g>
<g transform="translate(147 455)"><path d="M21 7V15H20V17H19V18H18V19H17V20H15V21H7V20H5V19H4V18H3V17H2V15H1V7H2V5H3V4H4V3H5V2H7V1H15V2H17V3H18V4H19V5H20V7H21M17 6V5H16V4H14V3H8V4H6V5H5V6H4V8H3V14H4V16H5V17H6V18H8V19H14V18H16V17H17V16H18V14H19V8H18V6H17M14 7V8H15V9H14V10H13V12H14V13H15V14H14V15H13V14H12V13H10V14H9V15H8V14H7V13H8V12H9V10H8V9H7V8H8V7H9V8H10V9H12V8H13V7H14Z" fill="#322F28"/></g>
<g transform="translate(175 455)"><path d="M22 11V12H21V13H20V14H19V15H17V14H16V13H15V12H14V11H17V9H16V7H15V6H13V5H9V6H7V7H6V9H5V13H6V15H7V16H9V17H13V16H16V18H14V19H8V18H6V17H5V16H4V14H3V8H4V6H5V5H6V4H8V3H14V4H16V5H17V6H18V8H19V11H22Z" fill="#322F28"/></g>
<g transform="translate(203 455)"><path d="M0 11V12H1V13H2V14H3V15H5V14H6V13H7V12H8V11H5V9H6V7H7V6H9V5H13V6H15V7H16V9H17V13H16V15H15V16H13V17H9V16H6V18H8V19H14V18H16V17H17V16H18V14H19V8H18V6H17V5H16V4H14V3H8V4H6V5H5V6H4V8H3V11H0Z" fill="#322F28"/></g>
<g transform="translate(231 455)"><path d="M20 1H5V2H4V15H6V3H15V19H13V18H12V17H1V20H2V21H16V20H17V3H19V5H21V2H20" fill="#322F28"/></g>
<g transform="translate(259 455)"><path d="M3 4H5V3H7V2H9V1H13V2H15V3H17V4H19V14H18V16H17V18H16V19H15V20H13V21H9V20H7V19H6V18H5V16H4V14H3V4M10 3V4H8V5H6V6H5V13H6V15H7V17H8V18H10V19H12V18H14V17H15V15H16V13H17V6H16V5H14V4H12V3H10Z" fill="#322F28"/></g>
<g transform="translate(287 455)"><path d="M6 2H8V1H14V2H16V3H17V4H18V5H19V7H20V14H19V16H18V20H17V21H5V20H4V16H3V14H2V8H3V5H4V4H5V3H6V2M15 5V4H13V3H9V4H7V5H6V6H5V9H4V13H5V15H6V19H8V17H10V19H12V17H14V19H16V15H17V13H18V8H17V6H16V5H15M7 8H10V11H7V8M12 11V8H15V11H12M10 13H12V15H10V13Z" fill="#322F28"/></g>
<g transform="translate(315 455)"><path d="M4 1H18V2H19V20H18V21H4V20H3V2H4V1M5 3V19H17V3H5M9 5H10V4H12V5H13V7H12V8H10V7H9V5M9 18V17H8V16H7V12H8V11H9V10H13V11H14V12H15V16H14V17H13V18H9M10 13H9V15H10V16H12V15H13V13H12V12H10V13Z" fill="#322F28"/></g>
<g transform="translate(343 455)"><path d="M16 5V6H17V16H16V17H6V16H5V6H6V5H16M7 7V15H15V7H7Z" fill="#322F28"/></g>
<g transform="translate(371 455)"><path d="M8 3V4H9V5H10V6H11V7H12V8H13V9H14V10H15V11H16V12H17V11H19V13H18V14H17V15H18V16H19V17H20V19H19V20H17V19H16V18H15V17H14V18H13V19H11V17H12V16H11V15H10V14H9V13H8V12H7V11H6V10H5V9H4V8H3V7H2V2H7V3H8M7 5H6V4H4V5H5V6H6V7H7V8H8V9H9V10H10V11H11V12H12V13H14V12H13V11H12V10H11V9H10V8H9V7H8V6H7V5Z" fill="#322F28"/></g>
<g transform="translate(399 455)"><path d="M1 2H2V1H11V2H12V3H13V4H14V5H15V6H16V7H17V8H18V9H19V10H20V11H21V13H20V14H19V15H18V16H17V17H16V18H15V19H14V20H13V21H11V20H10V19H9V18H8V17H7V16H6V15H5V14H4V13H3V12H2V11H1V2M3 10H4V11H5V12H6V13H7V14H8V15H9V16H10V17H11V18H13V17H14V16H15V15H16V14H17V13H18V11H17V10H16V9H15V8H14V7H13V6H12V5H11V4H10V3H3V10M14 11H15V13H14V12H13V11H12V10H11V9H10V7H11V8H12V9H13V10H14V11M10 12H11V13H12V15H11V14H10V13H9V12H8V10H9V11H10V12M5 4H7V5H8V7H7V8H5V7H4V5H5V4Z" fill="#322F28"/></g>
<g transform="translate(427 455)"><path d="M1 2H2V1H11V2H12V3H13V4H14V5H15V6H16V7H17V8H18V9H19V10H20V11H21V13H20V14H19V15H18V16H17V17H16V18H15V19H14V20H13V21H11V20H10V19H9V18H8V17H7V16H6V15H5V14H4V13H3V12H2V11H1V2M3 10H4V11H5V12H6V13H7V14H8V15H9V16H10V17H11V18H13V17H14V16H15V15H16V14H17V13H18V11H17V10H16V9H15V8H14V7H13V6H12V5H11V4H10V3H3V10M5 4H7V5H8V7H7V8H5V7H4V5H5V4Z" fill="#322F28"/></g>
<g transform="translate(455 455)"><path d="M20 3V19H19V20H3V19H2V3H3V2H19V3H20M18 6H4V18H18V6M9 9V10H10V11H11V13H10V14H9V15H8V16H6V14H7V13H8V11H7V10H6V8H8V9H9M11 16V14H16V16H11Z" fill="#322F28"/></g>
<g transform="translate(483 455)"><path d="M4 2H18V3H19V4H20V18H19V19H18V20H4V19H3V18H2V4H3V3H4V2M17 5V4H5V5H4V17H5V18H17V17H18V5H17M6 8H16V10H6V8M6 12H13V14H6V12Z" fill="#322F28"/></g>
<g transform="translate(511 455)"><path d="M2 4H12V14H2V4M4 6V12H10V6H4M14 4H20V6H14V4M14 8H20V10H14V8M14 12H20V14H14V12M2 16H18V18H2V16Z" fill="#322F28"/></g>
<g transform="translate(539 455)"><path d="M5 8H9V9H10V13H9V14H5V13H4V9H5V8M19 5V6H20V7H21V15H20V16H19V17H3V16H2V15H1V7H2V6H3V5H19M18 7H4V8H3V14H4V15H18V14H19V8H18V7Z" fill="#322F28"/></g>
<g transform="translate(35 483)"><path d="M3 5H19V6H20V7H21V15H20V16H19V17H3V16H2V15H1V7H2V6H3V5M13 8V9H12V13H13V14H17V13H18V9H17V8H13Z" fill="#322F28"/></g>
<g transform="translate(63 483)"><path d="M2 6H7V3H8V2H14V3H15V6H20V7H21V19H20V20H2V19H1V7H2V6M9 6H13V4H9V6M19 8H3V12H6V10H9V12H13V10H16V12H19V8M3 18H19V14H16V16H13V14H9V16H6V14H3V18Z" fill="#322F28"/></g>
<g transform="translate(91 483)"><path d="M10 5H12V10H10V5M10 11H12V13H10V11M2 1H20V2H21V16H20V17H15V18H14V19H13V20H12V21H10V20H9V19H8V18H7V17H2V16H1V2H2V1M3 3V15H8V16H9V17H10V18H12V17H13V16H14V15H19V3H3Z" fill="#322F28"/></g>
<g transform="translate(119 483)"><path d="M2 1H20V2H21V16H20V17H15V18H14V19H13V20H12V21H10V20H9V19H8V18H7V17H2V16H1V2H2V1M3 3V15H8V16H9V17H10V18H12V17H13V16H14V15H19V3H3M5 6H17V8H5V6M5 10H15V12H5V10Z" fill="#322F28"/></g>
<g transform="translate(147 483)"><path d="M2 1H20V2H21V16H20V17H15V18H14V19H13V20H12V21H10V20H9V19H8V18H7V17H2V16H1V2H2V1M3 3V15H8V16H9V17H10V18H12V17H13V16H14V15H19V3H3Z" fill="#322F28"/></g>
<g transform="translate(175 483)"><path d="M10 17H12V15H10V17M10 14H12V9H10V14M2 21H20V20H21V6H20V5H15V4H14V3H13V2H12V1H10V2H9V3H8V4H7V5H2V6H1V20H2V21M3 19V7H8V6H9V5H10V4H12V5H13V6H14V7H19V19H3Z" fill="#322F28"/></g>
<g transform="translate(203 483)"><path d="M2 21H20V20H21V6H20V5H15V4H14V3H13V2H12V1H10V2H9V3H8V4H7V5H2V6H1V20H2V21M3 19V7H8V6H9V5H10V4H12V5H13V6H14V7H19V19H3M5 16H15V14H5V16M5 12H17V10H5V12Z" fill="#322F28"/></g>
<g transform="translate(231 483)"><path d="M2 21H20V20H21V6H20V5H15V4H14V3H13V2H12V1H10V2H9V3H8V4H7V5H2V6H1V20H2V21M3 19V7H8V6H9V5H10V4H12V5H13V6H14V7H19V19H3Z" fill="#322F28"/></g>
<g transform="translate(259 483)"><path d="M14 15H12V13H14V15M14 12H12V7H14V12M21 2V20H20V21H6V20H5V15H4V14H3V13H2V12H1V10H2V9H3V8H4V7H5V2H6V1H20V2H21M19 3H7V8H6V9H5V10H4V12H5V13H6V14H7V19H19V3Z" fill="#322F28"/></g>
<g transform="translate(287 483)"><path d="M17 8V6H9V8H17M15 16V14H9V16H15M17 12V10H9V12H17M21 20V2H20V1H6V2H5V7H4V8H3V9H2V10H1V12H2V13H3V14H4V15H5V20H6V21H20V20H21M19 19H7V14H6V13H5V12H4V10H5V9H6V8H7V3H19V19Z" fill="#322F28"/></g>
<g transform="translate(315 483)"><path d="M21 20V2H20V1H6V2H5V7H4V8H3V9H2V10H1V12H2V13H3V14H4V15H5V20H6V21H20V20H21M19 19H7V14H6V13H5V12H4V10H5V9H6V8H7V3H19V19Z" fill="#322F28"/></g>
<g transform="translate(343 483)"><path d="M8 15H10V13H8V15M8 12H10V7H8V12M1 2V20H2V21H16V20H17V15H18V14H19V13H20V12H21V10H20V9H19V8H18V7H17V2H16V1H2V2H1M3 3H15V8H16V9H17V10H18V12H17V13H16V14H15V19H3V3Z" fill="#322F28"/></g>
<g transform="translate(371 483)"><path d="M5 8V6H13V8H5M5 16V14H11V16H5M5 12V10H13V12H5M1 20V2H2V1H16V2H17V7H18V8H19V9H20V10H21V12H20V13H19V14H18V15H17V20H16V21H2V20H1M3 19H15V14H16V13H17V12H18V10H17V9H16V8H15V3H3V19Z" fill="#322F28"/></g>
<g transform="translate(399 483)"><path d="M1 20V2H2V1H16V2H17V7H18V8H19V9H20V10H21V12H20V13H19V14H18V15H17V20H16V21H2V20H1M3 19H15V14H16V13H17V12H18V10H17V9H16V8H15V3H3V19Z" fill="#322F28"/></g>
<g transform="translate(427 483)"><path d="M10 7V16H8V7H10M12 7H14V16H12V7M8 2H14V3H19V5H18V19H17V20H5V19H4V5H3V3H8V2M6 5V18H16V5H6Z" fill="#322F28"/></g>
<g transform="translate(455 483)"><path d="M18 17V19H4V17H18M8 15V9H4V8H5V7H6V6H7V5H8V4H9V3H10V2H12V3H13V4H14V5H15V6H16V7H17V8H18V9H14V15H8M10 13H12V7H13V6H12V5H10V6H9V7H10V13Z" fill="#322F28"/></g>
<g transform="translate(483 483)"><path d="M13 2H15V3H16V4H17V5H18V6H19V8H20V14H19V16H18V17H17V18H16V19H15V20H13V18H14V17H15V16H16V15H17V13H18V9H17V7H16V6H15V5H14V4H13V2M14 7V8H15V10H16V12H15V14H14V15H13V7H14M2 8H6V7H7V6H8V5H9V4H10V3H11V19H10V18H9V17H8V16H7V15H6V14H2V8M4 10V12H7V13H8V14H9V8H8V9H7V10H4Z" fill="#322F28"/></g>
<g transform="translate(511 483)"><path d="M6 8H10V7H11V6H12V5H13V4H14V3H15V19H14V18H13V17H12V16H11V15H10V14H6V8M8 10V12H11V13H12V14H13V8H12V9H11V10H8Z" fill="#322F28"/></g>
<g transform="translate(539 483)"><path d="M16 7V8H17V10H18V12H17V14H16V15H15V7H16M8 8V7H9V6H10V5H11V4H12V3H13V19H12V18H11V17H10V16H9V15H8V14H4V8H8M6 10V12H9V13H10V14H11V8H10V9H9V10H6Z" fill="#322F28"/></g>
<g transform="translate(35 511)"><path d="M12 7H14V8H15V9H17V8H18V7H20V9H19V10H18V12H19V13H20V15H18V14H17V13H15V14H14V15H12V13H13V12H14V10H13V9H12V7M6 8V7H7V6H8V5H9V4H10V3H11V19H10V18H9V17H8V16H7V15H6V14H2V8H6M7 10H4V12H7V13H8V14H9V8H8V9H7V10Z" fill="#322F28"/></g>
<g transform="translate(63 511)"><path d="M5 3H11V7H5M13 3H18V7H13M5 15V19H11V15M13 15H18V19H13M8 9H3V13H8M10 9H20V13H10" fill="#322F28"/></g>
<g transform="translate(91 511)"><path d="M19 21H3V16H1V14H21V16H19V21M5 16V19H17V16H5M2 7V5H3V4H4V3H5V2H6V1H16V2H17V3H18V4H19V5H20V7H18V13H16V7H12V9H14V13H8V9H10V7H6V13H4V7H2M7 3V4H6V5H16V4H15V3H7Z" fill="#322F28"/></g>
</svg>