<svg xmlns="http://www.w3.org/2000/svg" id="memory-box-light-vertical-horizontal-stipple-left-up-right" viewBox="0 0 22 22"><path d="M17 2H16V1H17M6 3H5V2H6M14 4H15V3H14M3 6H2V5H3M7 5H8V4H7M17 6H16V5H17M21 6H20V5H21M4 8H5V7H4M9 9H8V8H7V9H6V8H5V9H4V8H3V9H2V8H1V9H0V8H1V7H0V6H1V7H2V8H3V7H4V6H5V7H6V8H7V7H8V6H7V5H6V4H7V3H8V2H7V1H6V0H7V1H8V0H9V1H8V2H9V3H8V4H9V5H8V6H9V7H8V8H9M14 8H15V7H14M18 8H19V7H18M21 9H20V8H19V9H18V8H17V9H16V8H15V9H14V8H13V7H14V6H13V5H14V4H13V3H14V2H13V1H14V0H15V1H14V2H15V3H16V4H15V5H14V6H15V7H16V8H17V7H18V6H19V7H20V8H21V7H22V8H21M3 15H4V14H3M7 15H8V14H7M2 17H1V16H2M6 17H5V16H6M7 19H8V18H7M6 21H5V20H6M8 22H7V21H8V20H7V19H6V18H7V17H8V16H7V15H6V14H5V15H4V16H3V15H2V14H1V15H0V14H1V13H2V14H3V13H4V14H5V13H6V14H7V13H8V14H9V15H8V16H9V17H8V18H9V19H8V20H9V21H8M12 22H10V12H0V10H10V0H12V10H22V12H12Z" /></svg>