<svg xmlns="http://www.w3.org/2000/svg" id="memory-table-top-spiral-stairs-down" viewBox="0 0 22 22"><path d="M12 3H13V2H12M14 3H15V2H14M16 3H17V2H16M18 3H19V2H18M13 4H14V3H13M15 4H16V3H15M17 4H18V3H17M12 5H13V4H12M14 5H15V4H14M16 5H17V4H16M13 6H14V5H13M15 6H16V5H15M19 7H18V6H19M12 7H13V6H12M14 7H15V6H14M13 8H14V7H13M17 9H16V8H17M19 9H18V8H19M12 9H13V8H12M2 19H3V18H4V17H5V16H6V15H7V14H8V13H9V12H2M19 19H20V11H12V12H13V13H14V14H15V15H16V16H17V17H18V18H19M22 22H0V0H2V2H10V0H22M10 5V3H2V5M10 8V6H2V8M20 10V3H19V4H18V5H17V6H16V7H15V8H14V9H13V10M10 11V9H2V11M11 20V12H10V13H9V14H8V15H7V16H6V17H5V18H4V19H3V20M19 20V19H18V18H17V17H16V16H15V15H14V14H13V13H12V20Z" /></svg>